/* XPM */
static char *dummy[]={
"32 32 10 1",
"h c #3d253b",
"d c #523b40",
"# c #56587b",
". c #5880cc",
"a c #62abd4",
"g c #895a45",
"b c #9bf0fd",
"c c #bf704d",
"f c #e6deca",
"e c #ffffff",
".##.aabba.##.##aabba...aaaaa...a",
"#...#.abaa.#...aabbaaaaaaaaaaa..",
".........aa....bbbbbaaaaaaaaaaaa",
"........abbacabbbabbbaaaaaaaaaaa",
"......aabbadcd##.aaabbaaaaaaaaaa",
"...aaaa..##ddd##.....abeebaaaaaa",
"aabba.#####cccfcc......abeeebaab",
"a...aa.###..gfffcaa..a..beeeeebb",
".##..aaa..fffffff.accaabeebaa...",
"######.aacfffffffaaccabbbaa.....",
"#######.accffffffaaccbba........",
".....##.a##ffffffaaccba..aaa..aa",
"#......aa.#ffffffebccffaaaaaaaa.",
".......a.##fffffebbccffaaaaaaaaa",
"......accccfffffaabccfffaaaaaaaa",
"....cccddddffffccccccffffffaaaaa",
"....ccdddddfffddddccccffffffaaaa",
"...cddddddfdcddddddccccceeccccca",
"aabcdddddddddddddddddcccggggabbb",
"..hccddddddddddddddddccggg.....a",
"##hgccddddddddddddccccgggh......",
"#hhgggcccccccccccccgggghhhh.....",
".hhggggcccccccccggggggghhhh...aa",
"#hhhgggggggggggggggggghhhhh.aaaa",
"..hhggggggggggggggggghhhhhaaaaaa",
"..hhhhhhggggggghhhhhhhhhhhaaaaaa",
".....hhhhhhhhhhhhhhhhhhaaaaaaaaa",
"aaaaaahhhhhhhhhhhhhhhhbbaaaaaaab",
"aa.##..aaa.###.aa.abbaabbebaaaab",
".######..aaa...aaaabba.aabbbeeeb",
"a.......aa.aaabbbeeea.....aaabbb",
"aaaa...aa.###.bbeeeb..........aa"};
