/* XPM */
static char *dummy[]={
"32 32 10 1",
"h c #3d253b",
"d c #523b40",
"# c #56587b",
". c #5880cc",
"a c #62abd4",
"f c #895a45",
"b c #9bf0fd",
"c c #bf704d",
"e c #e6deca",
"g c #ffffff",
".##.aabba.##.##..aa.###.....###.",
"#...#.abaa.#.....aa...........##",
".........aa....aaaaa............",
"........abbacaaaa.aaa...........",
"......aabbadcd###...aa..........",
"...aaaa..##ddd#######.abba......",
"aabba.#####cccecc######.abbba..a",
"a...aa.###..feeec..##.##abbbbbaa",
".##..aaa..eeeeeee#.cc..abba..###",
"######.aaceeeeeee..cc.aaa..#####",
"#######.acceeeeee..ccaa.########",
".....##.a##eeeeee..cca.##...##..",
"#......aa.#eeeeeebaccee........#",
".......a.##eeeeegaaccee.........",
"......bcccceeeee..bcceee........",
"aaaacccddddeeeecccccceeeeeeaaaaa",
"....ccdddddeeeddddcccceeeeee....",
"...cddddddedcddddddcccccggccccc.",
"bbgcdddddddddddddddddcccffffabbb",
"aahccddddddddddddddddccfff.....a",
"..hfccddddddddddddccccfffh......",
".hhfffcccccccccccccffffhhhh.....",
"ahhffffcccccccccfffffffhhhh...aa",
".hhhffffffffffffffffffhhhhh.aaaa",
"aahhfffffffffffffffffhhhhhaaaaaa",
"aahhhhhhfffffffhhhhhhhhhhhaaaaaa",
"aaaaahhhhhhhhhhhhhhhhhhaaaaaaaaa",
"bbbbbbhhhhhhhhhhhhhhhhbbaaaaaaab",
"bba..aabbba...aaa.abbaabbgbaaaab",
"a......aabbbaaaaaaabba.aabbbgggb",
"baaaaaaabbabbbbbbggga.....aaabbb",
"bbbbaaabba...abbgggb..........aa"};
