/* XPM */
static char *dummy[]={
"32 32 6 1",
". c None",
"d c #3d253b",
"a c #523b40",
"c c #895a45",
"# c #bf704d",
"b c #e6deca",
"................................",
"................................",
"................................",
"............#...................",
"...........a#a..................",
"...........aaa..................",
"...........###b##...............",
"............cbbb#...............",
"..........bbbbbbb..##...........",
".........#bbbbbbb..##...........",
".........##bbbbbb..##...........",
"...........bbbbbb..##...........",
"...........bbbbbb..##bb.........",
"...........bbbbb...##bb.........",
".......####bbbbb...##bbb........",
"....###aaaabbbb######bbbbbb.....",
"....##aaaaabbbaaaa####bbbbbb....",
"...#aaaaaaba#aaaaaa#####..#####.",
"...#aaaaaaaaaaaaaaaaa###cccc....",
"..d##aaaaaaaaaaaaaaaa##ccc......",
"..dc##aaaaaaaaaaaa####cccd......",
".ddccc#############ccccdddd.....",
".ddcccc#########cccccccdddd.....",
".dddccccccccccccccccccddddd.....",
"..ddcccccccccccccccccddddd......",
"..ddddddcccccccddddddddddd......",
".....dddddddddddddddddd.........",
"......dddddddddddddddd..........",
"................................",
"................................",
"................................",
"................................"};
