/* XPM */
static char *dummy[]={
"32 32 10 1",
"h c #3d253b",
"d c #523b40",
"# c #56587b",
". c #5880cc",
"a c #62abd4",
"g c #895a45",
"b c #9bf0fd",
"c c #bf704d",
"f c #e6deca",
"e c #ffffff",
".##.aabba.##.##aabba...aaaaa...a",
"#...#.abaa.#...acbbaaaaaaaaaaa..",
".........aa....bcbbbaaaaaaaaaaaa",
"........abbaaabbcabbbaaaaaaaaaaa",
"......aabba...cdddcabbaaaaaaaaaa",
"...aaaa..#####ccccc..abeebaaaaaa",
"aabba.######cc##c......abeeebaab",
"a...aa.###..cccccaa..a..beeeeebb",
".##..aaa.....fccc.aaaaabeebaa...",
"######.aaaa..fffcccccabbbaa.....",
"#######.a.aaafffcffccbba........",
".....##.a##.afffcfffbba..aaa..aa",
"#......aa.###fffcfffaaaaaaaaaaa.",
".......a.##..fffcfffaaaaaaaaaaaa",
"......aaaaaagfffcfffgaaaaaaaaaaa",
"......aaaa.ggfffcfffggaaaaaaaaaa",
".....aa..#ccddffcfffdgcbaaaaaaaa",
"...aa.###.ccddddcfffdccbeebbbbba",
"aababba...ccddddcddddcceebaaabbb",
"....aaaa..ccddddfddddccbba.....a",
"#####..aahccdddfffdddccha.......",
"########.hgcdddfffdddcgh........",
".###...##hgcdddfffdddcghaaa...aa",
"###......hggcddfffddccghaa..aaaa",
".........hhgccdffdddcghhaaaaaaaa",
".........hhgccddfddccghhaaaaaaaa",
".........ahhggccfcccgghaaaaaaaaa",
"aaaaaaaabbhhgggcfcggghhbaaaaaaab",
"aa.##..aaahhhhggcgghhhhbbebaaaab",
".######..aaahhggcgghha.aabbbeeeb",
"a.......aa.ahhhhchhhh.....aaabbb",
"aaaa...aa.###hhhhhhh..........aa"};
