/* XPM */
static char *dummy[]={
"32 32 10 1",
"h c #3d253b",
"d c #523b40",
"# c #56587b",
". c #5880cc",
"a c #62abd4",
"f c #895a45",
"b c #9bf0fd",
"c c #bf704d",
"e c #e6deca",
"g c #ffffff",
".##.aabba.##.##..aa.###.....###.",
"#...#.abaa.#....caa...........##",
".........aa....acaaa............",
"........abbaaaaac.aaa...........",
"......aabba...cdddc.aa..........",
"...aaaa..#####ccccc##.abba......",
"aabba.######cc##c######.abbba..a",
"a...aa.###..ccccc..##.##abbbbbaa",
".##..aaa.....eccc#.....abba..###",
"######.aaaa..eeeccccc.aaa..#####",
"#######.a.aaaeeeceeccaa.########",
".....##.a##.aeeeceeeaa.##...##..",
"#......aa.###eeeceee...........#",
".......a.##..eeeceee............",
"......bbbbbbfeeeceeef...........",
"aaaaaabbbbaffeeeceeeffaaaaaaaaaa",
".....bb..#ccddeeceeedfcb........",
"...bb.###.ccddddceeedccbggbbbbb.",
"bbgbggbaaaccddddcddddccggbaaabbb",
"aaaabbbbaaccddddeddddccbba.....a",
".....aabbhccdddeeedddccha.......",
"........ahfcdddeeedddcfh........",
"a...aaa..hfcdddeeedddcfhaaa...aa",
"...aaaaaahffcddeeeddccfhaa..aaaa",
"aaaaaaaaahhfccdeedddcfhhaaaaaaaa",
"aaaaaaaaahhfccddeddccfhhaaaaaaaa",
"aaaaaaaaabhhffccecccffhaaaaaaaaa",
"bbbbbbbbgghhfffcecfffhhbaaaaaaab",
"bba..aabbbhhhhffcffhhhhbbgbaaaab",
"a......aabbbhhffcffhha.aabbbgggb",
"baaaaaaabbabhhhhchhhh.....aaabbb",
"bbbbaaabba...hhhhhhh..........aa"};
