/* XPM */
static char *dummy[]={
"32 32 6 1",
". c None",
"d c #3d253b",
"a c #523b40",
"c c #895a45",
"# c #bf704d",
"b c #e6deca",
"................................",
"................#...............",
"................#...............",
"................#...............",
"..............#aaa#.............",
"..............#####.............",
"............##..#...............",
"............#####...............",
".............b###...............",
".............bbb#####...........",
".............bbb#bb##...........",
".............bbb#bbb............",
".............bbb#bbb............",
".............bbb#bbb............",
"............cbbb#bbbc...........",
"...........ccbbb#bbbcc..........",
"..........##aabb#bbbac#.........",
"..........##aaaa#bbba##.........",
"..........##aaaa#aaaa##.........",
"..........##aaaabaaaa##.........",
".........d##aaabbbaaa##d........",
".........dc#aaabbbaaa#cd........",
".........dc#aaabbbaaa#cd........",
".........dcc#aabbbaa##cd........",
".........ddc##abbaaa#cdd........",
".........ddc##aabaa##cdd........",
"..........ddcc##b###ccd.........",
"..........ddccc#b#cccdd.........",
"..........ddddcc#ccdddd.........",
"............ddcc#ccdd...........",
"............dddd#dddd...........",
".............ddddddd............"};
