/* XPM */
static char *dummy[]={
"32 32 8 1",
"# c #56587b",
". c #5880cc",
"a c #62abd4",
"e c #802954",
"b c #9bf0fd",
"d c #d01946",
"c c #e84444",
"f c #ffffff",
".##.aabba.##.##..aa.###.....###.",
"#...#.abaa.#.....aa...........##",
".........aa....aaaaa............",
"........abbaaaaaa.aaa...........",
"......aabba...###...aa..........",
"...aaaa..############.abba......",
"aabbc.#################.abbba..a",
"a..dcc.###..#..##..#c.##abbbbbaa",
".##ddccc......###dddcc.abba..###",
"###ddccccca.....ddddcccaa..#####",
"###dddcccccaa..dddddcccc########",
"..ddddddddd.aaaeedddccccc...##..",
"#.deeedddddd#.aeeeeedddd.......#",
"..eeeeeddddddafeeeeedddd........",
"...eeeeedddddbbeeeeedddd........",
"aaaeeeeeddddd##eeeeeddddaaaaaaaa",
"....eeeeddddd##eeeeedddd........",
"...beeeeedddddeeeeeeddddffbbbbb.",
"bbfbeeeeeeddddeeeeeeddddfbcccbbb",
"aaaabeeeeeedddeeeeedddddddccdd.a",
".....eeeeeedddeeeeedddddddcddd..",
"......eeeeeeddeeeeeddddddeedd...",
"a...aaeeeeeeddeeeeeddddeeeee..aa",
"...aaaeeeeeeebeeeeeddddeeee.aaaa",
"aaaaaaaaaaaaabeeeeeddddeeaaaaaaa",
"aaaaaaaaaaaaabeeeeeddddaaaaaaaaa",
"aaaaaaaaabbbbeeeeeeddddaaaaaaaaa",
"bbbbbbbbffbaaeeeeedddddbaaaaaaab",
"bba..aabbba...aeeedddaabbfbaaaab",
"a......aabbbaaaaaaabba.aabbbfffb",
"baaaaaaabbabbbbbbfffa.....aaabbb",
"bbbbaaabba...abbfffb..........aa"};
