/* XPM */
static char *dummy[]={
"32 32 8 1",
"# c #56587b",
". c #5880cc",
"a c #62abd4",
"e c #802954",
"b c #9bf0fd",
"d c #d01946",
"c c #e84444",
"f c #ffffff",
".##.aabba.##.##..aa.###.....###.",
"#...#.abaa.#.....aa...........##",
".........aa....aaaaa.c..........",
"........abbaaaaaa.aadc..........",
"......aabba...###.ddccc.........",
"...aaaa..#######ddddcccbba......",
"aabba.#######dddddddccccabbba..a",
"a...aa.###..#eddddddcccccbbbbbaa",
".##..aaa....eeeeeddccccccba..###",
"######.aaaa.eeeeeeedcccccc.#####",
"#######.a.aeeeeeeeddddcccc######",
".....##.a##eeeeeeeddddddcc..##..",
"#......aa.#eeeeeeeddddddd......#",
".......a.#eeeeeeeddddddd........",
"......aaaeeeeeeedddddddd........",
"......aaaeeeeeeedddddddaaaaaaaaa",
".....aa..eeeeeeedddddddbaaaaaaaa",
"...aa.###eeeeeeedddddddbffbbbbba",
"aababba.eeeeeedddddddddffbaaabbb",
"....aaaaeeeeeeddddddddabba.....a",
"#####..eeeeeeddddddddabba.......",
"#######eeeeeeddddddddbba........",
".###..eeeeeeeddddddddaa.aaa...aa",
"###...eeeeeeedddddddaaaaaa..aaaa",
"......eeeeeeddddddddaaaaaaaaaaaa",
"......eeeeeeddddddddaaaaaaaaaaaa",
"......eeeeeeddddddddfbaaaaaaaaaa",
"aaaaaaaaeeeddddddddabfbbaaaaaaab",
"aa.##..aaeddddddd.abbaabbfbaaaab",
".######..addd..aaaabba.aabbbfffb",
"a.......aa.aaabbbfffa.....aaabbb",
"aaaa...aa.###.bbfffb..........aa"};
