/* XPM */
static char *dummy[]={
"28 28 4 1",
". c None",
"b c #802954",
"a c #d01946",
"# c #e84444",
"............................",
"............................",
"............................",
"............................",
"............................",
"..#.........................",
".a##..............#.........",
".aa###.........aaa##........",
".aa#####......aaaa###.......",
".aaa#####....aaaaa####......",
"aaaaaaaaa....bbaaa#####.....",
"abbbaaaaaa...bbbbbaaaa......",
"bbbbbaaaaaa..bbbbbaaaa......",
".bbbbbaaaaa..bbbbbaaaa......",
".bbbbbaaaaa..bbbbbaaaa......",
"..bbbbaaaaa..bbbbbaaaa......",
"..bbbbbaaaaabbbbbbaaaa......",
"..bbbbbbaaaabbbbbbaaaa..###.",
"...bbbbbbaaabbbbbaaaaaaa##aa",
"...bbbbbbaaabbbbbaaaaaaa#aaa",
"....bbbbbbaabbbbbaaaaaabbaa.",
"....bbbbbbaabbbbbaaaabbbbb..",
"....bbbbbbb.bbbbbaaaabbbb...",
"............bbbbbaaaabb.....",
"............bbbbbaaaa.......",
"...........bbbbbbaaaa.......",
"...........bbbbbaaaaa.......",
".............bbbaaa........."};
