/* XPM */
static char *dummy[]={
"32 32 7 1",
"# c #5880cc",
". c #62abd4",
"e c #802954",
"a c #9bf0fd",
"d c #d01946",
"c c #e84444",
"b c #ffffff",
".##.aabba.##.##..aa.###.....###.",
"#...#.abaa.#.....aa...........##",
".....c...aa....aaaaa............",
".....dc.abbaaaaaa.aaa...........",
".....dccbba...###...aa..........",
"...addcccc###########.abba......",
"aabbdddccccc###########.abbba..a",
"a...dddcccccc..##..##.##abbbbbaa",
".##.dddcccccc.####.....abba..###",
"####dddccccccc........aaa..#####",
"####ddddccccccc.....aaa.########",
"...ddddddddddddd...aaa.##...##..",
"#..ddddedddddddddbaa...........#",
"...dddeeeedddddddaa.............",
"...dddeeeeddddddd.aaa...........",
"....deeeeedddddddd#.aa..........",
"....eeeeeeeddddddd###.aaccccd...",
"...aeeeeeeeddddddd####.dcccddaa.",
"aababeeeeeedddddddd#..dddccddaaa",
"....aeeeeeeeddddddd.ddddddddd##.",
"#####eeeeeeedddddddddddddeddd###",
"######eeeeeeedddddddddddeeddd###",
".###..eeeeeeeddddddddddeeeedd#..",
"###...eeeeeeeddddddddeeeeeee....",
"......eeeeeeeddddddddeeeeee.....",
"......eeeeeeeeddddddeeeeee......",
".......eeeeeeedddddeeeeee.......",
"aaaaaaaabbeeeeddddeeeeee.......a",
"aa.##..aaa.#eeeddeeeeeeaaba....a",
".######..aaa..eeeeeeee#..aaabbba",
"a.......aa.aaaaaabbb.#####...aaa",
"aaaa...aa.###.aabbba##########.."};
