/* XPM */
static char *_a04f02e14264f02fe44422508a753dbTsasabn7B0shGHSt[] = {
/* columns rows colors chars-per-pixel */
"32 32 4 1 ",
"  c None",
". c #802954",
"X c #D01946",
"o c #E84444",
/* pixels */
"                                ",
"                                ",
"                                ",
"                                ",
"                                ",
"                                ",
"                                ",
"                                ",
"                                ",
"                                ",
"                                ",
"                                ",
"                                ",
"                                ",
"           ooo                  ",
"          XXoooo                ",
"         XXXXoooooo             ",
"        XXXXXXoooooooo          ",
"       XXXXXXXXoooooooooo       ",
"      XXXXXXXXXooooooooooooo    ",
"     XXXXXXXXXXXoooooooooooooo  ",
"    XXXXXXXXXXXXooooooooooooXX  ",
"   XXXXXXXXXXXXXXoooooooXXXXXX  ",
"  XXXXXXXXXXXXXXXoooXXXXXXXXXXX ",
" XXXXXXXXXXXXXXXXXXXXXXXXXXXXXX ",
" .................XXXXXXXXXXXXX ",
" .................XXXXXXXXXXXXX ",
" ..................XXXXXXXXXX   ",
" ..................XXXXXXXX     ",
"  .................XXXXXX       ",
"  ..................XXX         ",
"  ..................X           "
};
