/* XPM */
static char *b1ed3bcdf82f40c7a2b90ae25f1eda55SOudutorhV8QWi7h[] = {
/* columns rows colors chars-per-pixel */
"32 32 4 1 ",
"  c None",
". c #802954",
"X c #D01946",
"o c #E84444",
/* pixels */
"                      o         ",
"                    XXo         ",
"                  XXXooo        ",
"                XXXXXooo        ",
"             XXXXXXXooooo       ",
"            XXXXXXXXooooo       ",
"            ..XXXXXXoooooo      ",
"           ......XXooooooo      ",
"           ........XXoooooo     ",
"          ........XXXXXoooo     ",
"          ........XXXXXXXoo     ",
"          ........XXXXXXXX      ",
"         ........XXXXXXXXX      ",
"         ........XXXXXXXX       ",
"        ........XXXXXXXXX       ",
"        ........XXXXXXXX        ",
"        ........XXXXXXXX        ",
"        ........XXXXXXXX        ",
"       .......XXXXXXXXXX        ",
"       .......XXXXXXXXX         ",
"      .......XXXXXXXXXX         ",
"      .......XXXXXXXXX          ",
"      .......XXXXXXXXX          ",
"     .......XXXXXXXXXX          ",
"     .......XXXXXXXXX           ",
"    .......XXXXXXXXXX           ",
"    .......XXXXXXXXX            ",
"     ......XXXXXXXXX            ",
"      ....XXXXXXXXX             ",
"       ...XXXXXXXXX             ",
"        .XXXXXXXX               ",
"         XXX                    "
};
