/* XPM */
static char *_6212a3abc754430daeb73fbb9e589d28g5PleoybZ7iur8y[] = {
/* columns rows colors chars-per-pixel */
"32 32 4 1 ",
"  c None",
". c #802954",
"X c #D01946",
"o c #E84444",
/* pixels */
"                                ",
"                                ",
"                                ",
"                                ",
"                                ",
"                                ",
"  o                             ",
" Xooo               Xo          ",
" XXoooo          XXXXoo         ",
" XXoooooo       XXXXoooo        ",
" XXXoooooo     XXXXXooooo       ",
"XXXX.XXXXX     ..XXXoooooo      ",
"XX...XXXXX     ...XXooooXX      ",
"X....XXXXXX    .....XXXXX       ",
"......XXXXXX   .....XXXXX       ",
" ......XXXXX   .....XXXXX       ",
" ......XXXXX   .....XXXXX       ",
"  .....XXXXXX  .....XXXXX       ",
"  ......XXXXXX......XXXXX       ",
"  .......XXXXX......XXXXX  oooo ",
"  .......XXXXX......XXXXXXXooooo",
"   .......XXXX.....XXXXXXXXoooXX",
"   .......XXXX.....XXXXXXXXoXXXX",
"    .......XXX.....XXXXXXX..XXX ",
"    .......XXX.....XXXXX......  ",
"     .......X .....XXXXX....    ",
"              .....XXXXX..      ",
"              .....XXXXX        ",
"             ......XXXXX        ",
"             ......XXXXX        ",
"             .....XXXXXX        ",
"               ...XXXX          "
};
