/* XPM */
static char *dummy[]={
"32 32 8 1",
"# c #56587b",
". c #5880cc",
"a c #62abd4",
"e c #802954",
"b c #9bf0fd",
"d c #d01946",
"c c #e84444",
"f c #ffffff",
".##.aabba.##.##..aa.###.....###.",
"#...#.abaa.#.....aa...........##",
".....c...aa....aaaaa............",
".....dc.abbaaaaaa.aaa...........",
".....dccbba...###...aa..........",
"...addcccc###########.abba......",
"aabbdddccccc###########.abbba..a",
"a...dddcccccc..##..##.##abbbbbaa",
".##.dddcccccc.####.....abba..###",
"####dddccccccc........aaa..#####",
"####ddddccccccc.....aaa.########",
"...ddddddddddddd...aaa.##...##..",
"#..ddddedddddddddbaa...........#",
"...dddeeeedddddddaa.............",
"...dddeeeeddddddd.bbb...........",
"aaaadeeeeedddddddd#abbaaaaaaaaaa",
"....eeeeeeeddddddd###.bbccccd...",
"...beeeeeeeddddddd####.dcccddbb.",
"bbfbfeeeeeedddddddd.aadddccddbbb",
"aaaabeeeeeeedddddddaaddddccdd..a",
".....eeeeeeedddddddadddddeddd...",
"......eeeeeeedddddddddddeeedd...",
"a...aaeeeeeeeddddddddddeeeedd.aa",
"...aaaeeeeeeeddddddddeeeeeeeaaaa",
"aaaaaaeeeeeeeddddddddeeeeeeaaaaa",
"aaaaaaeeeeeeeeddddddeeeeeeeaaaaa",
"aaaaaaaeeeeeeedddddeeeeeeeaaaaaa",
"bbbbbbbbffeeeeddddeeeeeeaaaaaaab",
"bba..aabbba.eeeddeeeeeebbfbaaaab",
"a......aabbbaaeeeeeeee.aabbbfffb",
"baaaaaaabbabbbbbbfffa.....aaabbb",
"bbbbaaabba...abbfffb..........aa"};
