/* XPM */
static char *dummy[]={
"32 32 9 1",
"f c #523b40",
"# c #56587b",
". c #5880cc",
"a c #62abd4",
"e c #802954",
"b c #9bf0fd",
"d c #d01946",
"c c #e84444",
"g c #ffffff",
".##.aabba.##.##..aa.###.....###.",
"#...#.abaa.#.....aa...........##",
".........aa....aaaaa............",
"........abbaaaaaa.aac...........",
"......aabba...###..dca..........",
"...aaaa..#########ddcccbba......",
"aabba.###########dddccc.abbba..a",
"a...aa.###..#..#ddddccc#abbbbbaa",
".##..aaa......##ddddcccabba..###",
"######.aaaa...ddddddcccca..#####",
"#######.a.aaadddddddccccc#######",
".....##.a##.aeeeedddccccc...##..",
"#......aa.###eeeeeedccccc......#",
"dccccc.a.##..eeeeeeedddddd......",
"dccccccaaaaaaeeeeeeddddddd......",
"ddccccccaa..#eeeeeedddddddaaaaaa",
"dddcccccc####eeeeeeddddddaaaaaaa",
".ddeeddddd..eeeeeefddddddgbbbbba",
"addeedddddd#eeeeeffedddddbaaabbb",
".ddeedddddddeeeeeffeddddda.....a",
"##deeeddddddeeeffeedddddd.......",
"###eeeeddddeeeefffddddddd.......",
".##eeeeedddeeeefffdddddddaa...aa",
"###..eeeeddefeeffeedddddaa..aaaa",
".....eeeeddeffeffeedddddaddddccd",
".......eeeeeefeffeeddddeeddddddd",
".......eeeeeeeeffeeddddeddddedda",
"aaaaaaaabba..eeeeeeddddeeeeeeeab",
"aa.##..aaa.##eeeeeeedaabeeeeeaab",
".######..aaa...aaaabba.aabbbgggb",
"a.......aa.aaabbbggga.....aaabbb",
"aaaa...aa.###.bbgggb..........aa"};
