/* XPM */
static char *dummy[]={
"32 32 7 1",
"# c #5880cc",
". c #62abd4",
"e c #802954",
"a c #9bf0fd",
"d c #d01946",
"c c #e84444",
"b c #ffffff",
".##.aabba.##.##..aa.###.....###.",
"#...#.abaa.#.....aa...........##",
"........caa....aaaaa............",
"........dbbaaaaaa.aaa...........",
"......addcc...###...aa..........",
"...aaadddccc#########.abba......",
"aabba.dddcccc##########.abbba..a",
"a...aadddccccc.##..##.##abbbbbaa",
".##..ddddddddddd##.....abba..###",
"#####deeeeddddddd.....aaa..#####",
"#####eeeeeddddddd...aaa.########",
".....eeeeeddddddd..aaa.##...##..",
"#....eeeeeeddddddbaa...........#",
".....eeeeeeddddddda...ccccc.....",
"......eeeeedddddddaaaddcccd.....",
"......eeeeeeddddddd.ddddcdd.....",
".....aeeeeeeddddddddddddddd.....",
"...aa.eeeeeedddddddddddddddaaaa.",
"aababbeeeeeeddddddddddddeed..aaa",
"....aaaeeeeedddddddddddeee#####.",
"#####..eeeeeedddddddddeee#######",
"#######eeeeeedddddddddeee#######",
".###...#eeeeeeddddddeeee...###..",
"###.....eeeeeeddddddeeee..##....",
"........eeeeeeedddddee..........",
"........eeeeeeeddddde...........",
"........eeeeeeeeddddba..........",
"aaaaaaaabeeeeeeeddddabaa.......a",
"aa.##..aaeeeeeeedd.aa..aaba....a",
".######..eeeeeee...aa.#..aaabbba",
"a.......aa.aaaaaabbb.#####...aaa",
"aaaa...aa.###.aabbba##########.."};
