/* XPM */
static char *dummy[]={
"28 28 4 1",
". c None",
"b c #802954",
"a c #d01946",
"# c #e84444",
"............................",
"............................",
"............................",
"............................",
"............................",
"............................",
"............................",
"............................",
"............................",
"............................",
"............................",
"............................",
"..........##................",
".........aa###..............",
"........aaa######...........",
".......aaaaa#######.........",
"......aaaaaaa#########......",
".....aaaaaaaa############...",
"....aaaaaaaaaa###########a..",
"...aaaaaaaaaaaa######aaaaa..",
"..aaaaaaaaaaaaa###aaaaaaaaa.",
".aaaaaaaaaaaaaaaaaaaaaaaaaa.",
".bbbbbbbbbbbbbbbaaaaaaaaaaa.",
".bbbbbbbbbbbbbbbaaaaaaaaaaa.",
".bbbbbbbbbbbbbbbbaaaaaaaa...",
"..bbbbbbbbbbbbbbbaaaaa......",
"..bbbbbbbbbbbbbbbbaa........",
"..bbbbbbbbbbbbbbbb.........."};
