/* XPM */
static char *dummy[]={
"32 32 8 1",
"# c #56587b",
". c #5880cc",
"a c #62abd4",
"f c #802954",
"b c #9bf0fd",
"d c #d01946",
"c c #e84444",
"e c #ffffff",
".##.aabba.##.##..aa.###.....###.",
"#...#.abaa.#.....aa...........##",
".........aa....aaaaa............",
"........abbaaaaaa.aaa...........",
"......aabba...###...aa..........",
"...aaaa..############.abba......",
"aabba.#################.abbba..a",
"a...aa.###..#..##..##.##abbbbbaa",
".##..aaa......####.....abba..###",
"######.aaaa...........aaa..#####",
"#######.a.aaa.......aaa.########",
".....##.a##.aaa....aaa.##...##..",
"#......aa.##ccabbbaa...........#",
".......a.##ddccceaa.............",
"......aaaadddccccccbb...........",
"......aaadddddcccccccbaaaaaaaaaa",
".....aa.dddddddcccccccccaaaaaaaa",
"...aa.#ddddddddccccccccccccbbbba",
"aababbddddddddddcccccccccccdabbb",
"....addddddddddddccccccddddd...a",
"####dddddddddddddcccddddddddd...",
"###dddddddddddddddddddddddddd...",
".##fffffffffffffffddddddddddd.aa",
"###fffffffffffffffdddddddddddaaa",
"...ffffffffffffffffddddddddaaaaa",
"....fffffffffffffffdddddaaaaaaaa",
"....ffffffffffffffffddaaaaaaaaaa",
"aaaaffffffffffffffffbebbaaaaaaab",
"aa.##..aaa.###.aa.abbaabbebaaaab",
".######..aaa...aaaabba.aabbbeeeb",
"a.......aa.aaabbbeeea.....aaabbb",
"aaaa...aa.###.bbeeeb..........aa"};
