/* XPM */
static char *dummy[]={
"28 28 4 1",
". c None",
"b c #802954",
"a c #d01946",
"# c #e84444",
"...................#........",
"..................a#........",
"................aa###.......",
"..............aaaa###.......",
"...........aaaaaaa####......",
"...........baaaaaa#####.....",
"..........bbbbbaa######.....",
"..........bbbbbbba######....",
".........bbbbbbbaaaa####....",
".........bbbbbbbaaaaaa##....",
".........bbbbbbbaaaaaaa.....",
"........bbbbbbbaaaaaaa......",
".......bbbbbbbaaaaaaaa......",
".......bbbbbbbaaaaaaa.......",
".......bbbbbbbaaaaaaa.......",
".......bbbbbbbaaaaaaa.......",
"......bbbbbbaaaaaaaaa.......",
"......bbbbbbaaaaaaaa........",
".....bbbbbbaaaaaaaa.........",
".....bbbbbbaaaaaaaa.........",
"....bbbbbbbaaaaaaaa.........",
"....bbbbbbbaaaaaaa..........",
"....bbbbbbaaaaaaaa..........",
"....bbbbbbaaaaaaaa..........",
"....bbbbbbaaaaaaaa..........",
"......bbbaaaaaaaa...........",
".......baaaaaaa.............",
"........aaa................."};
