/* XPM */
static char *dummy[]={
"32 32 8 1",
"# c #56587b",
". c #5880cc",
"a c #62abd4",
"f c #802954",
"b c #9bf0fd",
"e c #d01946",
"d c #e84444",
"c c #ffffff",
".##.aabba.##.##aabba...aaaaa...a",
"#...#.abaa.#...aabbaaaaaaaaaaa..",
".........aa....bbbbbaaaaaaaaaaaa",
"........abbaaabbbabbbaaaaaaaaaaa",
"......aabba...##.aaabbaaaaaaaaaa",
"...aaaa..#######.....abccbaaaaaa",
"aabbd.##########.......abcccbaab",
"a..edd.###..#..#.aa.da..bcccccbb",
".##eeddd......##.eeeddabccbaa...",
"###eeddddda....aeeeedddbbaa.....",
"###eeedddddaa..eeeeedddd........",
"..eeeeeeeee.aabffeeedddddaaa..aa",
"#.efffeeeeee#.bfffffeeeeaaaaaaa.",
"..fffffeeeeeeacfffffeeeeaaaaaaaa",
"...fffffeeeeeabfffffeeeeaaaaaaaa",
"...fffffeeeee##fffffeeeeaaaaaaaa",
"....ffffeeeee##fffffeeeeaaaaaaaa",
"...afffffeeeeeffffffeeeeccbbbbba",
"aabaffffffeeeeffffffeeeecbdddbbb",
"....affffffeeefffffeeeeeeeddee.a",
"#####ffffffeeefffffeeeeeeedeee..",
"######ffffffeefffffeeeeeeffee...",
".###..ffffffeefffffeeeefffff..aa",
"###...fffffffafffffeeeeffff.aaaa",
".............afffffeeeeffaaaaaaa",
".............afffffeeeeaaaaaaaaa",
".........aaaaffffffeeeeaaaaaaaaa",
"aaaaaaaabba..fffffeeeeebaaaaaaab",
"aa.##..aaa.###.fffeeeaabbcbaaaab",
".######..aaa...aaaabba.aabbbcccb",
"a.......aa.aaabbbccca.....aaabbb",
"aaaa...aa.###.bbcccb..........aa"};
