/* XPM */
static char *_2ec8af150bc4b82f4b8303ef3874960httCdTpeoldry00g[] = {
/* columns rows colors chars-per-pixel */
"32 32 4 1 ",
"  c None",
". c #802954",
"X c #D01946",
"o c #E84444",
/* pixels */
"   o                            ",
"   Xoo                          ",
"   Xooo                         ",
"  XXooooo                       ",
"  XXXoooo                       ",
"  XXXXooooo                     ",
"  XXXXoooooo                    ",
"  XXXXooooooo                   ",
"  XXXXoooooooo                  ",
"  XXXXXoooooooo                 ",
" XXXXXXXXXXXXXXX                ",
" XXXXX.XXXXXXXXXX               ",
" XXXX...XXXXXXXXX               ",
" XXX.....XXXXXXXX               ",
" XXX.....XXXXXXXX               ",
"  X......XXXXXXXXX              ",
"  ........XXXXXXXX       oooooX ",
"  ........XXXXXXXX      XooooXX ",
"   .......XXXXXXXXX    XXXoooXX ",
"   ........XXXXXXXX   XXXXooXXX ",
"   ........XXXXXXXX  XXXXXXXXXX ",
"   ........XXXXXXXX XXXXXX.XXXX ",
"    ........XXXXXXXXXXXXX...XXX ",
"    .........XXXXXXXXXXX.....XX ",
"    .........XXXXXXXXX........  ",
"     ........XXXXXXXXX.......   ",
"     .........XXXXXXX.......    ",
"      ........XXXXX........     ",
"      ........XXXXX.......      ",
"         .....XXXX.......       ",
"           ....XX.......        ",
"              .........         "
};
