/* XPM */
static char *dummy[]={
"32 32 7 1",
"# c #5880cc",
". c #62abd4",
"e c #802954",
"a c #9bf0fd",
"d c #d01946",
"c c #e84444",
"b c #ffffff",
".##.aabba.##.##..aa.###.....###.",
"#...#.abaa.#.....aa...........##",
".........aa....aaaaa............",
"........abbaaaaaa.aaa...........",
"......aabba...###...aa..........",
"...aaaa..############.abba......",
"aabba.#################.abbba..a",
"a...aa.###..#..##..##.##abbbbbaa",
".##..aaa......####.....abba..###",
"######.aaaa...........aaa..#####",
"#######.a.aaa.......aaa.########",
".....##.a##ccca....aaa.##...##..",
"#......aaddddcccccca...........#",
".......a.dddddcccccccc..........",
"......aadddddddccccccccc........",
"......addddddddcccccccccccc.....",
".....addddddddddccccccccccccc...",
"...aadddddddddddcccccccccccddaa.",
"aabadddddddddddddccccccddddddaaa",
"...ddddddddddddddcccdddddddddd#.",
"##dddddddddddddddddddddddddddd##",
"##eeeeeeeeeeeeeeeedddddddddddd##",
".#eeeeeeeeeeeeeeeedddddddddddd..",
"##eeeeeeeeeeeeeeeeeddddddddd....",
"..eeeeeeeeeeeeeeeeeddddddd......",
"...eeeeeeeeeeeeeeeeddddd........",
"...eeeeeeeeeeeeeeeeeda..........",
"aaaaaaaabba..######.abaa.......a",
"aa.##..aaa.###...#.aa..aaba....a",
".######..aaa.......aa.#..aaabbba",
"a.......aa.aaaaaabbb.#####...aaa",
"aaaa...aa.###.aabbba##########.."};
