/* XPM */
static char *dummy[]={
"32 32 8 1",
"# c #56587b",
". c #5880cc",
"a c #62abd4",
"f c #802954",
"b c #9bf0fd",
"d c #d01946",
"c c #e84444",
"e c #ffffff",
".##.aabba.##.##aabba...aaaaa...a",
"#...#.abaa.#...aabbaaaaaaaaaaa..",
".........aa....bbbbbacaaaaaaaaaa",
"........abbaaabbbabbdcaaaaaaaaaa",
"......aabba...##.addcccaaaaaaaaa",
"...aaaa..#######ddddccceebaaaaaa",
"aabba.#######dddddddccccbeeebaab",
"a...aa.###..#fddddddccccceeeeebb",
".##..aaa....fffffddccccccebaa...",
"######.aaaa.fffffffdcccccca.....",
"#######.a.afffffffddddcccc......",
".....##.a##fffffffddddddccaa..aa",
"#......aa.#fffffffdddddddaaaaaa.",
".......a.#fffffffdddddddaaaaaaaa",
"......aaafffffffddddddddaaaaaaaa",
"......aaafffffffdddddddaaaaaaaaa",
".....aa..fffffffdddddddbaaaaaaaa",
"...aa.###fffffffdddddddbeebbbbba",
"aababba.ffffffdddddddddeebaaabbb",
"....aaaaffffffddddddddabba.....a",
"#####..ffffffddddddddabba.......",
"#######ffffffddddddddbba........",
".###..fffffffddddddddaa.aaa...aa",
"###...fffffffdddddddaaaaaa..aaaa",
"......ffffffddddddddaaaaaaaaaaaa",
"......ffffffddddddddaaaaaaaaaaaa",
"......ffffffddddddddebaaaaaaaaaa",
"aaaaaaaafffddddddddabebbaaaaaaab",
"aa.##..aafddddddd.abbaabbebaaaab",
".######..addd..aaaabba.aabbbeeeb",
"a.......aa.aaabbbeeea.....aaabbb",
"aaaa...aa.###.bbeeeb..........aa"};
