/* XPM */
static char *_d6707e63ffd44f6bca5bdc81262d2d07Du1sfXypu18jrVN[] = {
/* columns rows colors chars-per-pixel */
"32 32 4 1 ",
"  c None",
". c #802954",
"X c #D01946",
"o c #E84444",
/* pixels */
"                                ",
"       Xo                       ",
"       XX                       ",
"      XXXoo                     ",
"     XXXXooo                    ",
"     XXXXoooo                   ",
"     XXXXooooo                  ",
"    XXXXXooooooo                ",
"    XXXXXXXXXXXX                ",
"    X.....XXXXXXX               ",
"    ......XXXXXXX               ",
"    ......XXXXXXX               ",
"    .......XXXXXX               ",
"    .......XXXXXXX    oooooo    ",
"     ......XXXXXXX   XXooooX    ",
"     .......XXXXXXX XXXXooXX    ",
"     .......XXXXXXXXXXXXoXXX    ",
"     .......XXXXXXXXXXXXXXXX    ",
"     .......XXXXXXXXXXXX...X    ",
"      ......XXXXXXXXXXX....     ",
"      .......XXXXXXXXX....      ",
"      .......XXXXXXXXX....      ",
"       .......XXXXXX....        ",
"       .......XXXXXX....        ",
"       .......XXXXXX...         ",
"        .......XXXXX..          ",
"        .......XXXXX.           ",
"        ........XXXX            ",
"         .......XXXX            ",
"         .......XX              ",
"         .......                ",
"                                "
};
