/* XPM */
static char *dummy[]={
"32 32 8 1",
"# c #56587b",
". c #5880cc",
"a c #62abd4",
"f c #802954",
"b c #9bf0fd",
"d c #d01946",
"c c #e84444",
"e c #ffffff",
".##.aabba.##.##..aa.###.....###.",
"#...#.abaa.#.....aa...........##",
".........aa....aaaaa............",
"........abbaaaaaa.aaa...........",
"......aabba...###...aa..........",
"...aaaa..############.abba......",
"aabba.#################.abbba..a",
"a...aa.###..#..##..##.##abbbbbaa",
".##..aaa......####.....abba..###",
"######.aaaa...........aaa..#####",
"#######.a.aaa.......aaa.########",
".....##.a##.aaa....aaa.##...##..",
"#......aa.##ccabbbaa...........#",
".......a.##ddccceaa.............",
"......bbbbdddccccccbb...........",
"aaaaaabbbdddddcccccccbaaaaaaaaaa",
".....bb.dddddddccccccccc........",
"...bb.#ddddddddccccccccccccbbbb.",
"bbebeeddddddddddcccccccccccdabbb",
"aaaabddddddddddddccccccddddd...a",
"....dddddddddddddcccddddddddd...",
"...dddddddddddddddddddddddddd...",
"a..fffffffffffffffddddddddddd.aa",
"...fffffffffffffffdddddddddddaaa",
"aaaffffffffffffffffddddddddaaaaa",
"aaaafffffffffffffffdddddaaaaaaaa",
"aaaaffffffffffffffffddaaaaaaaaaa",
"bbbbffffffffffffffffbebbaaaaaaab",
"bba..aabbba...aaa.abbaabbebaaaab",
"a......aabbbaaaaaaabba.aabbbeeeb",
"baaaaaaabbabbbbbbeeea.....aaabbb",
"bbbbaaabba...abbeeeb..........aa"};
