/* XPM */
static char *dummy[]={
"32 32 8 1",
"# c #56587b",
". c #5880cc",
"a c #62abd4",
"e c #802954",
"b c #9bf0fd",
"c c #d01946",
"d c #e84444",
"f c #ffffff",
".##.aabba.##.##..aa.###.....###.",
"#...#.abaa.#.....aa...........##",
".........aa....aaaaa............",
"........abbaaaaaa.aaa...........",
"......aacda...###...aa..........",
"...aaaa.cc###########.abba......",
"aabba.#cccdd###########.abbba..a",
"a...aaccccddd..##..##.##abbbbbaa",
".##..accccdddd####.....abba..###",
"######ccccdddddd......aaa..#####",
"######cccccccccc....aaa.########",
".....#eeeeecccccc..aaa.##...##..",
"#.....eeeeeccccccbaa...........#",
"......eeeeeccccccaa.............",
"......eeeeeeccccccbbbdddddd.....",
"......eeeeeecccccc#accddddcaaaaa",
".....aeeeeeeecccccc.cccddccaaaaa",
"...aa.eeeeeeeccccccccccdcccbbbba",
"aababbeeeeeeeccccccccccccccaabbb",
"....aaeeeeeeecccccccccceeec....a",
"#####..eeeeeeccccccccceeee......",
"#######eeeeeecccccccceeee.......",
".###...#eeeeeecccccceee.aaa...aa",
"###.....eeeeeecccccceeeaaa..aaaa",
"........eeeeeecccccceeaaaaaaaaaa",
".........eeeeeeccccceaaaaaaaaaaa",
".........eeeeeecccccfbaaaaaaaaaa",
"aaaaaaaabeeeeeeeccccbfbbaaaaaaab",
"aa.##..aaaeeeeeeccabbaabbfbaaaab",
".######..aeeeeeeaaabba.aabbbfffb",
"a.......aa.aaabbbfffa.....aaabbb",
"aaaa...aa.###.bbfffb..........aa"};
