/* XPM */
static char *dummy[]={
"32 32 7 1",
"# c #5880cc",
". c #62abd4",
"e c #802954",
"a c #9bf0fd",
"d c #d01946",
"c c #e84444",
"b c #ffffff",
".##.aabba.##.##..aa.###.....###.",
"#...#.abaa.#.....aa...........##",
".........aa....aaaaa............",
"........abbaaaaaa.aaa...........",
"......aabba...###...aa..........",
"...aaaa..############.abba......",
"aabca.#################.abbba..a",
"a..ccc.###..#..##..#d.##abbbbbaa",
".##dcccc......###ddddc.abba..###",
"###dcccccca.....ddddcccaa..#####",
"###ddccccccaa..dddddcccc########",
"..dddeddddd.aaaeedddccccc...##..",
"#.deeeddddd##.aeeeddcccdd......#",
"..deeedddddd.abeeeeedddd........",
"...eeeeeddddaaaeeeeedddd........",
"...eeeeedddd###eeeeedddd........",
"...eeeeeddddd##eeeeedddd........",
"...eeeeeedddddeeeeeeddddbbaaaaa.",
"aabeeeeeeeddddeeeeeeddddbaccccaa",
"...eeeeeeeddddeeeeeeddddddcccc#.",
"####eeeeeeedddeeeeedddddddcccd##",
"####eeeeeeedddeeeeedddddddcddd##",
".###.eeeeeeeddeeeeeddddddeeddd..",
"###...eeeeeedaeeeeeddddeeee#....",
".............aeeeeeddddee.......",
".............aeeeeedddd.........",
".........aaaaeeeeeedddd.........",
"aaaaaaaabba..eeeeeedddda.......a",
"aa.##..aaa.##eeeeedddddaaba....a",
".######..aaa...eeeddd.#..aaabbba",
"a.......aa.aaaaaabbb.#####...aaa",
"aaaa...aa.###.aabbba##########.."};
