/* XPM */
static char *dummy[]={
"28 28 4 1",
". c None",
"b c #802954",
"# c #d01946",
"a c #e84444",
"............................",
"......#a....................",
"......##....................",
".....###aa..................",
"....####aaa.................",
"....####aaaa................",
"....####aaaaaa..............",
"....##########..............",
"....bbbbb######.............",
"....bbbbb######.............",
"....bbbbb######.............",
"....bbbbbb######...aaaaaa...",
"....bbbbbb######..##aaaa#...",
"....bbbbbbb######.###aa##...",
"....bbbbbbb##########a###...",
"....bbbbbbb##############...",
"....bbbbbbb##########bbb#...",
".....bbbbbb#########bbbb....",
".....bbbbbb########bbbb.....",
"......bbbbbb######bbb.......",
"......bbbbbb######bbb.......",
"......bbbbbb######bb........",
".......bbbbbb#####b.........",
".......bbbbbb#####..........",
".......bbbbbbb####..........",
"........bbbbbb##............",
"........bbbbbb..............",
"............................"};
