/* XPM */
static char *dummy[]={
"28 28 4 1",
". c None",
"b c #802954",
"a c #d01946",
"# c #e84444",
"...#........................",
"...a#.......................",
"...a##......................",
"..aa####....................",
"..aaa#####..................",
"..aaa######.................",
"..aaa######.................",
"..aaa#######................",
"..aaaa#######...............",
".aaaaaaaaaaaaa..............",
".aaaabaaaaaaaaa.............",
".aaabbbbaaaaaaa.............",
".aaabbbbaaaaaaa.............",
"..abbbbbaaaaaaaa............",
"..bbbbbbbaaaaaaa......####a.",
"..bbbbbbbaaaaaaa.....a###aa.",
"...bbbbbbaaaaaaaa...aaa##aa.",
"...bbbbbbbaaaaaaa..aaaa##aa.",
"...bbbbbbbaaaaaaa.aaaaabaaa.",
"....bbbbbbbaaaaaaaaaaabbbaa.",
"....bbbbbbbaaaaaaaaaabbbbaa.",
"....bbbbbbbaaaaaaaabbbbbbb..",
"....bbbbbbbaaaaaaaabbbbbb...",
"....bbbbbbbbaaaaaabbbbbbb...",
".....bbbbbbbaaaaabbbbbbb....",
"........bbbbaaaabbbbbb......",
"..........bbbaabbbbbb.......",
"............bbbbbbbb........"};
