/* XPM */
static char *dummy[]={
"32 32 8 1",
"# c #56587b",
". c #5880cc",
"a c #62abd4",
"f c #802954",
"b c #9bf0fd",
"c c #d01946",
"d c #e84444",
"e c #ffffff",
".##.aabba.##.##aabba...aaaaa...a",
"#...#.abaa.#...aabbaaaaaaaaaaa..",
".........aa....bbbbbaaaaaaaaaaaa",
"........abbaaabbbabbbaaaaaaaaaaa",
"......aacda...##.aaabbaaaaaaaaaa",
"...aaaa.cc######.....abeebaaaaaa",
"aabba.#cccdd####.......abeeebaab",
"a...aaccccddd..#.aa..a..beeeeebb",
".##..accccdddd##..aaaaabeebaa...",
"######ccccddddddaaaaaabbbaa.....",
"######ccccccccccaaaabbba........",
".....#fffffccccccaabbba..aaa..aa",
"#.....fffffccccccebbaaaaaaaaaaa.",
"......fffffccccccbbaaaaaaaaaaaaa",
"......ffffffccccccbbbddddddaaaaa",
"......ffffffcccccc.accddddcaaaaa",
".....afffffffcccccc.cccddccaaaaa",
"...aa.fffffffccccccccccdcccbbbba",
"aababbfffffffccccccccccccccaabbb",
"....aafffffffccccccccccfffc....a",
"#####..ffffffcccccccccffff......",
"#######ffffffccccccccffff.......",
".###...#ffffffccccccfff.aaa...aa",
"###.....ffffffccccccfffaaa..aaaa",
"........ffffffccccccffaaaaaaaaaa",
".........ffffffcccccfaaaaaaaaaaa",
".........ffffffcccccebaaaaaaaaaa",
"aaaaaaaabfffffffccccbebbaaaaaaab",
"aa.##..aaaffffffccabbaabbebaaaab",
".######..affffffaaabba.aabbbeeeb",
"a.......aa.aaabbbeeea.....aaabbb",
"aaaa...aa.###.bbeeeb..........aa"};
