/* XPM */
static char *dummy[]={
"32 32 9 1",
"f c #523b40",
"# c #56587b",
". c #5880cc",
"a c #62abd4",
"e c #802954",
"b c #9bf0fd",
"d c #d01946",
"c c #e84444",
"g c #ffffff",
".##.aabba.##.##..aa.###.....###.",
"#...#.abaa.#.....aa...........##",
".........aa....aaaaa............",
"........abbaaaaaa.aac...........",
"......aabba...###..dca..........",
"...aaaa..#########ddcccbba......",
"aabba.###########dddccc.abbba..a",
"a...aa.###..#..#ddddccc#abbbbbaa",
".##..aaa......##ddddcccabba..###",
"######.aaaa...ddddddcccca..#####",
"#######.a.aaadddddddccccc#######",
".....##.a##.aeeeedddccccc...##..",
"#......aa.###eeeeeedccccc......#",
"dccccc.a.##..eeeeeeedddddd......",
"dccccccbbbbbbeeeeeeddddddd......",
"ddccccccbbaa#eeeeeedddddddaaaaaa",
"dddcccccc####eeeeeedddddd.......",
".ddeeddddd..eeeeeefddddddgbbbbb.",
"bddeedddddd.eeeeeffedddddbaaabbb",
"addeedddddddeeeeeffeddddda.....a",
"..deeeddddddeeeffeedddddd.......",
"...eeeeddddeeeefffddddddd.......",
"a..eeeeedddeeeefffdddddddaa...aa",
"...aaeeeeddefeeffeedddddaa..aaaa",
"aaaaaeeeeddeffeffeedddddaddddccd",
"aaaaaaaeeeeeefeffeeddddeeddddddd",
"aaaaaaaeeeeeeeeffeeddddeddddedda",
"bbbbbbbbggbaaeeeeeeddddeeeeeeeab",
"bba..aabbba..eeeeeeedaabeeeeeaab",
"a......aabbbaaaaaaabba.aabbbgggb",
"baaaaaaabbabbbbbbggga.....aaabbb",
"bbbbaaabba...abbgggb..........aa"};
