/* XPM */
static char *dummy[]={
"32 32 8 1",
"# c #56587b",
". c #5880cc",
"a c #62abd4",
"f c #802954",
"b c #9bf0fd",
"e c #d01946",
"d c #e84444",
"c c #ffffff",
".##.aabba.##.##aabba...aaaaa...a",
"#...#.abaa.#...aabbaaaaaaaaaaa..",
".........aa....bbbbbaaaaaaaaaaaa",
"........abbaaabbbabbbaaaaaaaaaaa",
"......aabba...##.aaabbaaaaaaaaaa",
"...aaaa..#######.....abccbaaaaaa",
"aabba.##########.......abcccbaab",
"a...aa.###..#..#.aa..a..bcccccbb",
".##..aaa......##..aaaaabccbaa...",
"######.aaaa....aaaaaaabbbaa.....",
"#######.a.aaa..aaaaabbba........",
".....##.a##.aabaaaabbba..aaa..aa",
"#......aa.##ddbcccbbaaaaaaaaaaa.",
".......a.##eedddcbbaaaaaaaaaaaaa",
"......aaaaeeeddddddbbaaaaaaaaaaa",
"......aaaeeeeedddddddbaaaaaaaaaa",
".....aa.eeeeeeedddddddddaaaaaaaa",
"...aa.#eeeeeeeeddddddddddddbbbba",
"aababbeeeeeeeeeedddddddddddeabbb",
"....aeeeeeeeeeeeeddddddeeeee...a",
"####eeeeeeeeeeeeedddeeeeeeeee...",
"###eeeeeeeeeeeeeeeeeeeeeeeeee...",
".##fffffffffffffffeeeeeeeeeee.aa",
"###fffffffffffffffeeeeeeeeeeeaaa",
"...ffffffffffffffffeeeeeeeeaaaaa",
"....fffffffffffffffeeeeeaaaaaaaa",
"....ffffffffffffffffeeaaaaaaaaaa",
"aaaaffffffffffffffffbcbbaaaaaaab",
"aa.##..aaa.###.aa.abbaabbcbaaaab",
".######..aaa...aaaabba.aabbbcccb",
"a.......aa.aaabbbccca.....aaabbb",
"aaaa...aa.###.bbcccb..........aa"};
