/* XPM */
static char *dummy[]={
"32 32 8 1",
"# c #56587b",
". c #5880cc",
"a c #62abd4",
"e c #802954",
"b c #9bf0fd",
"d c #d01946",
"c c #e84444",
"f c #ffffff",
".##.aabba.##.##..aa.###.....###.",
"#...#.abaa.#.....aa...........##",
".........aa....aaaaa............",
"........abbaaaaaa.aaa...........",
"......aabba...###...aa..........",
"...aaaa..############.abba......",
"aabbc.#################.abbba..a",
"a..dcc.###..#..##..#c.##abbbbbaa",
".##ddccc......###dddcc.abba..###",
"###ddccccca.....ddddcccaa..#####",
"###dddcccccaa..dddddcccc########",
"..ddddddddd.aaaeedddccccc...##..",
"#.deeedddddd#.aeeeeedddd.......#",
"..eeeeeddddddafeeeeedddd........",
"...eeeeedddddabeeeeedddd........",
"...eeeeeddddd##eeeeeddddaaaaaaaa",
"....eeeeddddd##eeeeeddddaaaaaaaa",
"...aeeeeedddddeeeeeeddddffbbbbba",
"aabaeeeeeeddddeeeeeeddddfbcccbbb",
"....aeeeeeedddeeeeedddddddccdd.a",
"#####eeeeeedddeeeeedddddddcddd..",
"######eeeeeeddeeeeeddddddeedd...",
".###..eeeeeeddeeeeeddddeeeee..aa",
"###...eeeeeeeaeeeeeddddeeee.aaaa",
".............aeeeeeddddeeaaaaaaa",
".............aeeeeeddddaaaaaaaaa",
".........aaaaeeeeeeddddaaaaaaaaa",
"aaaaaaaabba..eeeeedddddbaaaaaaab",
"aa.##..aaa.###.eeedddaabbfbaaaab",
".######..aaa...aaaabba.aabbbfffb",
"a.......aa.aaabbbfffa.....aaabbb",
"aaaa...aa.###.bbfffb..........aa"};
