/* XPM */
static char *_04b0010b45546dbce2a3bccbe3dc4800lNkSiXHxJarD5Bx[] = {
/* columns rows colors chars-per-pixel */
"32 32 5 1 ",
"  c None",
". c #523B40",
"X c #802954",
"o c #D01946",
"O c #E84444",
/* pixels */
"                                ",
"                                ",
"                                ",
"                    O           ",
"                   oO           ",
"                  ooOOO         ",
"                 oooOOO         ",
"                ooooOOO         ",
"                ooooOOO         ",
"              ooooooOOOO        ",
"             oooooooOOOOO       ",
"             XXXXoooOOOOO       ",
"             XXXXXXoOOOOO       ",
"oOOOOO       XXXXXXXoooooo      ",
"oOOOOOO      XXXXXXooooooo      ",
"ooOOOOOO     XXXXXXooooooo      ",
"oooOOOOOO    XXXXXXoooooo       ",
" ooXXooooo  XXXXXX.oooooo       ",
" ooXXoooooo XXXXX..Xooooo       ",
" ooXXoooooooXXXXX..Xooooo       ",
"  oXXXooooooXXX..XXoooooo       ",
"   XXXXooooXXXX...ooooooo       ",
"   XXXXXoooXXXX...ooooooo       ",
"     XXXXooX.XX..XXooooo        ",
"     XXXXooX..X..XXooooo ooooOOo",
"       XXXXXX.X..XXooooXXooooooo",
"       XXXXXXXX..XXooooXooooXoo ",
"             XXXXXXooooXXXXXXX  ",
"             XXXXXXXo   XXXXX   ",
"                                ",
"                                ",
"                                "
};
