/* XPM */
static char *dummy[]={
"32 32 7 1",
"# c #5880cc",
". c #62abd4",
"e c #802954",
"a c #9bf0fd",
"d c #d01946",
"c c #e84444",
"b c #ffffff",
".##.aabba.##.##..aa.###.....###.",
"#...#.abaa.#.....aa...........##",
".........aa....aaaaa.c..........",
"........abbaaaaaa.ddccc.........",
"......aabba...##ddddccc.........",
"...aaaa..####dddddddccccba......",
"aabba.######ddddddddccccabbba..a",
"a...aa.###..eeddddddcccccbbbbbaa",
".##..aaa...eeeeeeddccccccba..###",
"######.aaaaeeeeeeeedcccccc.#####",
"#######.a.aeeeeeeeddddcccc######",
".....##.a##eeeeeeeddddddcc..##..",
"#......aa.eeeeeeedddddddd......#",
".......a.#eeeeeeeddddddd........",
"......aaaeeeeeeedddddddd........",
"......aaaeeeeeeeddddddd.........",
".....aa..eeeeeeeddddddda........",
"...aa.###eeeeeeedddddddabbaaaaa.",
"aababba.eeeeeedddddddddbba...aaa",
"....aaaaeeeeeedddddddd.aa.#####.",
"#####..eeeeeedddddddddaa.#######",
"#######eeeeeeddddddddaa.########",
".###..eeeeeeddddddddd..#...###..",
"###...eeeeeedddddddd......##....",
".....eeeeeeddddddddd............",
".....eeeeeeddddddddd............",
"......eeeeedddddddddba..........",
"aaaaaaaeeeedddddddd.abaa.......a",
"aa.##..aeeeddddddddaa..aaba....a",
".######..eddddddd..aa.#..aaabbba",
"a.......aa.aaaaaabbb.#####...aaa",
"aaaa...aa.###.aabbba##########.."};
