/* XPM */
static char *dummy[]={
"32 32 8 1",
"# c #56587b",
". c #5880cc",
"a c #62abd4",
"e c #802954",
"b c #9bf0fd",
"d c #d01946",
"c c #e84444",
"f c #ffffff",
".##.aabba.##.##..aa.###.....###.",
"#...#.abaa.#.....aa...........##",
".........aa....aaaaa.c..........",
"........abbaaaaaa.aadc..........",
"......aabba...###.ddccc.........",
"...aaaa..#######ddddcccbba......",
"aabba.#######dddddddccccabbba..a",
"a...aa.###..#eddddddcccccbbbbbaa",
".##..aaa....eeeeeddccccccba..###",
"######.aaaa.eeeeeeedcccccc.#####",
"#######.a.aeeeeeeeddddcccc######",
".....##.a##eeeeeeeddddddcc..##..",
"#......aa.#eeeeeeeddddddd......#",
".......a.#eeeeeeeddddddd........",
"......bbbeeeeeeedddddddd........",
"aaaaaabbbeeeeeeedddddddaaaaaaaaa",
".....bb..eeeeeeedddddddb........",
"...bb.###eeeeeeedddddddbffbbbbb.",
"bbfbffbaeeeeeedddddddddffbaaabbb",
"aaaabbbbeeeeeeddddddddabba.....a",
".....aaeeeeeeddddddddabba.......",
".......eeeeeeddddddddbba........",
"a...aaeeeeeeeddddddddaa.aaa...aa",
"...aaaeeeeeeedddddddaaaaaa..aaaa",
"aaaaaaeeeeeeddddddddaaaaaaaaaaaa",
"aaaaaaeeeeeeddddddddaaaaaaaaaaaa",
"aaaaaaeeeeeeddddddddfbaaaaaaaaaa",
"bbbbbbbbeeeddddddddabfbbaaaaaaab",
"bba..aabbeddddddd.abbaabbfbaaaab",
"a......aabdddaaaaaabba.aabbbfffb",
"baaaaaaabbabbbbbbfffa.....aaabbb",
"bbbbaaabba...abbfffb..........aa"};
