/* XPM */
static char *dummy[]={
"32 32 8 1",
"# c #56587b",
". c #5880cc",
"a c #62abd4",
"f c #802954",
"b c #9bf0fd",
"d c #d01946",
"c c #e84444",
"e c #ffffff",
".##.aabba.##.##aabba...aaaaa...a",
"#...#.abaa.#...aabbaaaaaaaaaaa..",
".....c...aa....bbbbbaaaaaaaaaaaa",
".....dc.abbaaabbbabbbaaaaaaaaaaa",
".....dccbba...##.aaabbaaaaaaaaaa",
"...addcccc######.....abeebaaaaaa",
"aabbdddccccc####.......abeeebaab",
"a...dddcccccc..#.aa..a..beeeeebb",
".##.dddcccccc.##..aaaaabeebaa...",
"####dddccccccc.aaaaaaabbbaa.....",
"####ddddcccccccaaaaabbba........",
"...dddddddddddddaaabbba..aaa..aa",
"#..ddddfdddddddddebbaaaaaaaaaaa.",
"...dddffffdddddddbbaaaaaaaaaaaaa",
"...dddffffdddddddabbbaaaaaaaaaaa",
"....dfffffdddddddd.abbaaaaaaaaaa",
"....fffffffddddddd...abbccccdaaa",
"...afffffffddddddd....adcccddbba",
"aababffffffdddddddd.aadddccddbbb",
"....afffffffdddddddaaddddccdd..a",
"#####fffffffdddddddadddddfddd...",
"######fffffffdddddddddddfffdd...",
".###..fffffffddddddddddffffdd.aa",
"###...fffffffddddddddfffffffaaaa",
"......fffffffddddddddffffffaaaaa",
"......ffffffffddddddfffffffaaaaa",
".......fffffffdddddfffffffaaaaaa",
"aaaaaaaabbffffddddffffffaaaaaaab",
"aa.##..aaa.#fffddffffffbbebaaaab",
".######..aaa..ffffffff.aabbbeeeb",
"a.......aa.aaabbbeeea.....aaabbb",
"aaaa...aa.###.bbeeeb..........aa"};
