/* XPM */
static char *dummy[]={
"32 32 9 1",
"g c #523b40",
"# c #56587b",
". c #5880cc",
"a c #62abd4",
"f c #802954",
"b c #9bf0fd",
"d c #d01946",
"c c #e84444",
"e c #ffffff",
".##.aabba.##.##aabba...aaaaa...a",
"#...#.abaa.#...aabbaaaaaaaaaaa..",
".........aa....bbbbbaaaaaaaaaaaa",
"........abbaaabbbabbcaaaaaaaaaaa",
"......aabba...##.aadcbaaaaaaaaaa",
"...aaaa..#######..ddccceebaaaaaa",
"aabba.##########.dddcccabeeebaab",
"a...aa.###..#..#ddddccc.beeeeebb",
".##..aaa......##ddddcccbeebaa...",
"######.aaaa...ddddddccccbaa.....",
"#######.a.aaadddddddccccc.......",
".....##.a##.affffdddcccccaaa..aa",
"#......aa.###ffffffdcccccaaaaaa.",
"dccccc.a.##..fffffffddddddaaaaaa",
"dccccccaaaaaaffffffdddddddaaaaaa",
"ddccccccaa..#ffffffdddddddaaaaaa",
"dddcccccc####ffffffddddddaaaaaaa",
".ddffddddd..ffffffgddddddebbbbba",
"addffdddddd#fffffggfdddddbaaabbb",
".ddffdddddddfffffggfddddda.....a",
"##dfffddddddfffggffdddddd.......",
"###ffffddddffffgggddddddd.......",
".##fffffdddffffgggdddddddaa...aa",
"###..ffffddfgffggffdddddaa..aaaa",
".....ffffddfggfggffdddddaddddccd",
".......ffffffgfggffddddffddddddd",
".......ffffffffggffddddfddddfdda",
"aaaaaaaabba..ffffffddddfffffffab",
"aa.##..aaa.##fffffffdaabfffffaab",
".######..aaa...aaaabba.aabbbeeeb",
"a.......aa.aaabbbeeea.....aaabbb",
"aaaa...aa.###.bbeeeb..........aa"};
