/* XPM */
static char *dummy[]={
"32 32 10 1",
"h c #3d253b",
"d c #523b40",
"# c #56587b",
". c #5880cc",
"a c #62abd4",
"g c #895a45",
"b c #9bf0fd",
"c c #bf704d",
"f c #e6deca",
"e c #ffffff",
".##.aabba.##.##aabba...aaaaa...a",
"#...#.abaa.#...ccbbaaaaaaaaaaa..",
".........aa....ccbbbaaaaaaaaaaaa",
"........abbaaaccccbbbaaaaaaaaaaa",
"......aabba..cdccdcabbaaaaaaaaaa",
"...aaaa..####cccccc..abeebaaaaaa",
"aabba.########cccc.....abeeebaab",
"a...aa.###.cc..ccaa..a..beeeeebb",
".##..aaa...cccccc.aaaaabeebaa...",
"######.aaaa.fccccaaaaabbbaa.....",
"#######.a.aafffcccccbbba........",
".....##.a##.fffccffccba..aaa..aa",
"#......aa.#gfffccffffaaaaaaaaaa.",
".......a.##gfffccffffaaaaaaaaaaa",
"......aaaaggfffccffffgaaaaaaaaaa",
"......aaaaggfffccffffgaaaaaaaaaa",
".....aa..ccdfffccffffccbaaaaaaaa",
"...aa.###ccdfffccffffccbeebbbbba",
"aababba.cccdfffccffffcccebaaabbb",
"....aaaacccddffccffffcccba.....a",
"#####..acccddddccddffccca.......",
"#######hcccddddddddddccch.......",
".###...hcccddddddddddccchaa...aa",
"###....hcccddddddddddcccha..aaaa",
".......hgccccddddddccccghaaaaaaa",
".......hgggccccccccccggghaaaaaaa",
".......hggggccccccccgggghaaaaaaa",
"aaaaaaaahgggggggggggggghaaaaaaab",
"aa.##..ahhgggggggggggghhbebaaaab",
".######.hhhgggggggggghhhabbbeeeb",
"a.......ahhhggggggggghh...aaabbb",
"aaaa...aa.hhhhhhhhhhhh........aa"};
