/* XPM */
static char *dummy[]={
"32 32 10 1",
"h c #3d253b",
"d c #523b40",
"# c #56587b",
". c #5880cc",
"a c #62abd4",
"f c #895a45",
"b c #9bf0fd",
"c c #bf704d",
"e c #e6deca",
"g c #ffffff",
".##.aabba.##.##..aa.###.....###.",
"#...#.abaa.#...ccaa...........##",
".........aa....ccaaa............",
"........abbaaaccccaaa...........",
"......aabba..cdccdc.aa..........",
"...aaaa..####cccccc##.abba......",
"aabba.########cccc#####.abbba..a",
"a...aa.###.cc..cc..##.##abbbbbaa",
".##..aaa...cccccc#.....abba..###",
"######.aaaa.ecccc.....aaa..#####",
"#######.a.aaeeecccccaaa.########",
".....##.a##.eeecceecca.##...##..",
"#......aa.#feeecceeee..........#",
".......a.##feeecceeee...........",
"......aaaaffeeecceeeef..........",
"......aaaaffeeecceeeefaaaaaaaaaa",
".....aa..ccdeeecceeeeccbaaaaaaaa",
"...aa.###ccdeeecceeeeccbggbbbbba",
"aababba.cccdeeecceeeecccgbaaabbb",
"....aaaacccddeecceeeecccba.....a",
"#####..acccddddccddeeccca.......",
"#######hcccddddddddddccch.......",
".###...hcccddddddddddccchaa...aa",
"###....hcccddddddddddcccha..aaaa",
".......hfccccddddddccccfhaaaaaaa",
".......hfffccccccccccfffhaaaaaaa",
".......hffffccccccccffffhaaaaaaa",
"aaaaaaaahffffffffffffffhaaaaaaab",
"aa.##..ahhffffffffffffhhbgbaaaab",
".######.hhhffffffffffhhhabbbgggb",
"a.......ahhhfffffffffhh...aaabbb",
"aaaa...aa.hhhhhhhhhhhh........aa"};
