/* XPM */
static char *dummy[]={
"32 32 6 1",
". c None",
"d c #3d253b",
"a c #523b40",
"c c #895a45",
"# c #bf704d",
"b c #e6deca",
"................................",
"...............##...............",
"...............##...............",
"..............####..............",
".............#a##a#.............",
".............######.............",
"..............####..............",
"...........##..##...............",
"...........######...............",
"............b####...............",
"............bbb#####............",
"............bbb##bb##...........",
"...........cbbb##bbbb...........",
"...........cbbb##bbbb...........",
"..........ccbbb##bbbbc..........",
"..........ccbbb##bbbbc..........",
".........##abbb##bbbb##.........",
".........##abbb##bbbb##.........",
"........###abbb##bbbb###........",
"........###aabb##bbbb###........",
"........###aaaa##aabb###........",
".......d###aaaaaaaaaa###d.......",
".......d###aaaaaaaaaa###d.......",
".......d###aaaaaaaaaa###d.......",
".......dc####aaaaaa####cd.......",
".......dccc##########cccd.......",
".......dcccc########ccccd.......",
"........dccccccccccccccd........",
"........ddccccccccccccdd........",
"........dddccccccccccddd........",
".........dddcccccccccdd.........",
"..........dddddddddddd.........."};
