/* XPM */
static char *dummy[]={
"32 32 10 1",
"h c #3d253b",
"d c #523b40",
"# c #56587b",
". c #5880cc",
"a c #62abd4",
"g c #895a45",
"b c #9bf0fd",
"c c #bf704d",
"f c #e6deca",
"e c #ffffff",
".##.aabba.##.##aabba...aaaaa...a",
"#...#.abaa.#...aabbaaaaaaaaaaa..",
".........aa....bbbbbaaaaaaaaaaaa",
"........abbaaabbbabcbaaaaaaaaaaa",
"......aabba...##.adcdbaaaaaaaaaa",
"...aaaa..#######..dddabeebaaaaaa",
"aabba.#########ccfccc..abeeebaab",
"a...aa.###..#..cfffg.a..beeeeebb",
".##..aaa...cc.#fffffffabeebaa...",
"######.aaaacc..fffffffcbbaa.....",
"#######.a.acc..ffffffcca........",
".....##.a##ccabffffffba..aaa..aa",
"#......aaffcc.bffffffaaaaaaaaaa.",
".......a.ffccaeefffffaaaaaaaaaaa",
"......aafffccabafffffccccaaaaaaa",
".....ffffffccccccffffddddcccaaaa",
"....ffffffccccddddfffdddddccaaaa",
".ccccc##cccccddddddcdfddddddcbba",
"aabaggggcccdddddddddddddddddcbbb",
"....aagggccddddddddddddddddcch.a",
"#####.hgggccccddddddddddddccgh..",
"#####hhhhggggcccccccccccccggghh.",
".###.hhhhgggggggcccccccccgggghha",
"###..hhhhhgggggggggggggggggghhha",
"......hhhhhggggggggggggggggghhaa",
"......hhhhhhhhhhhggggggghhhhhhaa",
".........hhhhhhhhhhhhhhhhhhaaaaa",
"aaaaaaaabbhhhhhhhhhhhhhhhhaaaaab",
"aa.##..aaa.###.aa.abbaabbebaaaab",
".######..aaa...aaaabba.aabbbeeeb",
"a.......aa.aaabbbeeea.....aaabbb",
"aaaa...aa.###.bbeeeb..........aa"};
