/* XPM */
static char *dummy[]={
"32 32 10 1",
"h c #3d253b",
"d c #523b40",
"# c #56587b",
". c #5880cc",
"a c #62abd4",
"f c #895a45",
"b c #9bf0fd",
"c c #bf704d",
"e c #e6deca",
"g c #ffffff",
".##.aabba.##.##..aa.###.....###.",
"#...#.abaa.#.....aa...........##",
".........aa....aaaaa............",
"........abbaaaaaa.aca...........",
"......aabba...###.dcda..........",
"...aaaa..#########ddd.abba......",
"aabba.#########cceccc##.abbba..a",
"a...aa.###..#..ceeef#.##abbbbbaa",
".##..aaa...cc.#eeeeeee.abba..###",
"######.aaaacc..eeeeeeecaa..#####",
"#######.a.acc..eeeeeecc.########",
".....##.a##ccaaeeeeeea.##...##..",
"#......aaeecc.aeeeeee..........#",
".......a.eeccaggeeeee...........",
"......bbeeeccbb.eeeeecccc.......",
"aaaaaeeeeeecccccceeeeddddcccaaaa",
"....eeeeeeccccddddeeedddddcc....",
".ccccc##cccccddddddcdeddddddcbb.",
"bbgbffffcccdddddddddddddddddcbbb",
"aaaabbfffccddddddddddddddddcch.a",
".....ahfffccccddddddddddddccfh..",
".....hhhhffffcccccccccccccfffhh.",
"a...ahhhhfffffffcccccccccffffhha",
"...aahhhhhffffffffffffffffffhhha",
"aaaaaahhhhhfffffffffffffffffhhaa",
"aaaaaahhhhhhhhhhhfffffffhhhhhhaa",
"aaaaaaaaahhhhhhhhhhhhhhhhhhaaaaa",
"bbbbbbbbgghhhhhhhhhhhhhhhhaaaaab",
"bba..aabbba...aaa.abbaabbgbaaaab",
"a......aabbbaaaaaaabba.aabbbgggb",
"baaaaaaabbabbbbbbggga.....aaabbb",
"bbbbaaabba...abbgggb..........aa"};
