/* XPM */
static char *dummy[]={
"32 32 6 1",
". c None",
"d c #3d253b",
"a c #523b40",
"c c #895a45",
"# c #bf704d",
"b c #e6deca",
"................................",
"................................",
"................................",
"...................#............",
"..................a#a...........",
"..................aaa...........",
"...............##b###...........",
"...............#bbbc............",
"...........##..bbbbbbb..........",
"...........##..bbbbbbb#.........",
"...........##..bbbbbb##.........",
"...........##..bbbbbb...........",
".........bb##..bbbbbb...........",
".........bb##...bbbbb...........",
"........bbb##...bbbbb####.......",
".....bbbbbb######bbbbaaaa###....",
"....bbbbbb####aaaabbbaaaaa##....",
".#####..#####aaaaaa#abaaaaaa#...",
"....cccc###aaaaaaaaaaaaaaaaa#...",
"......ccc##aaaaaaaaaaaaaaaa##d..",
"......dccc####aaaaaaaaaaaa##cd..",
".....ddddcccc#############cccdd.",
".....ddddccccccc#########ccccdd.",
".....dddddccccccccccccccccccddd.",
"......dddddcccccccccccccccccdd..",
"......dddddddddddcccccccdddddd..",
".........dddddddddddddddddd.....",
"..........dddddddddddddddd......",
"................................",
"................................",
"................................",
"................................"};
