/* XPM */
static char *c2hhZG93X2JvdHRvbV9sZWZ0[] = {
/* columns rows colors chars-per-pixel */
"32 32 5 1 ",
"  c #56587B",
". c #5880CC",
"X c #62ABD4",
"o c #9BF0FD",
"O c white",
/* pixels */
"X..XooOOoX..X..XXooX...XXXXX...X",
".XXX.XoOooX.XXXXXooXXXXXXXXXXX..",
"XXXXXXXXXooXXXXoooooXXXXXXXXXXXX",
"XXXXXXXXoOOooooooXoooXXXXXXXXXXX",
"XXXXXXooOOoXXX...XXXooXXXXXXXXXX",
"XXXooooXX............XoOOoXXXXXX",
"ooOOoX.................XoOOOoXXo",
"oXXXooX...XX.XX..XX..X..oOOOOOoo",
"X..XXoooXXXXXX....XXXXXoOOoXX...",
"......XooooXXXXXXXXXXXoooXX.....",
".......XoXoooXXXXXXXoooX........",
"XXXXX..Xo..XoooXXXXoooX..XXX..XX",
".XXXXXXooX...XoOOOooXXXXXXXXXXX.",
"XXXXXXXoX..XXoOOOooXXXXXXXXXXXXX",
"XXXXXXoooooooooXXXoooXXXXXXXXXXX",
"XXXXXXooooXX.......XooXXXXXXXXXX",
"XXXXXooXX       .....XooXXXXXXXX",
"...oo.   ...    ......XoOOoooooX",
"XXoXooX....  ..X....XXXOOoXXXooo",
"....XXXX.......XXXXXXXXooX.....X",
"     ..XXX.....XXXXXXXooX.......",
"        .XX....XXXXXXooX........",
".   ...  ..X...XXXXooXX.XXX...XX",
"   .........XX.XXoooXXXXXX..XXXX",
".............XOOoooXXXXXXXXXXXXX",
".............XOoXXooXXXXXXXXXXXX",
".........XXXXXoX..XoOoXXXXXXXXXX",
"XXXXXXXXooX..   ...XoOooXXXXXXXo",
"XX.  ..XXX.   .XX.XooXXooOoXXXXo",
".      ..XXX...XXXXooX.XXoooOOOo",
"X.......XX.XXXoooOOOX.....XXXooo",
"XXXX...XX.   .ooOOOo..........XX"
};
