/* XPM */
static char *c2hhZG93X3RvcF9sZWZ0[] = {
/* columns rows colors chars-per-pixel */
"32 32 5 1 ",
"  c #56587B",
". c #9BF0FD",
"X c white",
"o c #5880CC",
"O c #62ABD4",
/* pixels */
"o  oOO..Oo  o  OO..OoooOOOOOoooO",
" ooo oO.OOo oooOO..OOOOOOOOOOOoo",
"oooooooooOOoooo.....OOOOOOOOOOOO",
"ooooooooO..OOO...O...OOOOOOOOOOO",
"ooooooOO..Oooo  oOOO..OOOOOOOOOO",
"oooOOOOoo       oooooO.XX.OOOOOO",
"OO..Oo          oooooooO.XXX.OO.",
"OoooOOo   oo oo oOOooOoo.XXXXX..",
"o  ooOOOoooooo  ooOOOOO.XX.OOooo",
"      oOOOOooooOOOOOOO...OOooooo",
"       oOoOOOooOOOOO...Ooooooooo",
"ooooo  oO  oOO.OOOO...OooOOOooOO",
" ooooooOOo   o.XXX..OOOOOOOOOOOo",
"oooooooOo  ooOXXX..OOOOOOOOOOOOO",
"oooooo.........OOO...OOOOOOOOOOO",
"OOOOOO....OO    oooO..OOOOOOOOOO",
"OOOOO..OOooooooooooooO..OOOOOOOO",
"OOO..OoooOOOooooooooooO.XX.....O",
"..X.XX.OOOOooOOOooooOOOXX.OOO...",
"OOOO....OOOOOOOOOOOOOOO..OoooooO",
"oooooOO...OOOOOOOOOOOO..Oooooooo",
"ooooooooO..OOOOOOOOOO..Ooooooooo",
"OoooOOOooOO.OOOOOOO..OOoOOOoooOO",
"oooOOOOOOOOO..OOO...OOOOOOooOOOO",
"OOOOOOOOOOOOO.XX...OOOOOOOOOOOOO",
"OOOOOOOOOOOOO.X.OO..OOOOOOOOOOOO",
"OOOOOOOOO......OooO.X.OOOOOOOOOO",
"........XX.OOooooooO.X..OOOOOOO.",
"..OooOO...OoooOOOoO..OO..X.OOOO.",
"OooooooOO...OOOOOOO..OoOO...XXX.",
".OOOOOOO..O......XXXOoooooOOO...",
"....OOO..OoooO..XXX.ooooooooooOO"
};
