/* XPM */
static char *c2hhZG93X2JvdHRvbV9yaWdodA__[] = {
/* columns rows colors chars-per-pixel */
"32 32 5 1 ",
"  c #56587B",
". c #9BF0FD",
"X c white",
"o c #5880CC",
"O c #62ABD4",
/* pixels */
"OooO..XX.OooOooOO..OoooOOOOOoooO",
"oOOOoO.X..OoOOOOO..OOOOOOOOOOOoo",
"OOOOOOOOO..OOOO.....OOOOOOOOOOOO",
"OOOOOOOO.XX......O...OOOOOOOOOOO",
"OOOOOO..XX.OOOoooOOO..OOOOOOOOOO",
"OOO....OOooooooooooooO.XX.OOOOOO",
"..XX.OoooooooooooooooooO.XXX.OO.",
".OOO..OoooOOoOOooOOooOoo.XXXXX..",
"OooOO...OOOOOOooooOOOOO.XX.OOooo",
"ooooooO....OOOOOOOOOOO...OOooooo",
"oooooooO.O...OOOOOOO...Ooooooooo",
"OOOOOooO.ooO...OOOO...OooOOOooOO",
"oOOOOOO..OoooO.XXX..OOOOOOOOOOOo",
"OOOOOOO.OooOO.XXX..OOOOOOOOOOOOO",
"OOOOOO.........OOO...OOOOOOOOOOO",
"OOOOOO....OOoooooooO..OOOOOOOOOO",
"OOOOO..OOooooooo     O..OOOOOOOO",
"OOO..OoooOOOoooo      o.XX.....o",
"..X.XX.OOOOooOOO    ooo..OoooOOO",
"OOOO....OOOOOOOOOooooooOOo     o",
"oooooOO...OOOOOOOoooooOOo       ",
"ooooooooO..OOOOOOooooOOo        ",
"OoooOOOooOO.OOOOOooOOoo ooo   oo",
"oooOOOOOOOOO..OOO.OOoooooo  oooo",
"OOOOOOOOOOOOO.XX..Oooooooooooooo",
"OOOOOOOOOOOOO.X.OoOOoooooooooooo",
"OOOOOOOOO......O  oO.Ooooooooooo",
"........XX.OOooo   oO.OOoooooooO",
"..OooOO...OoooOOO oOOooOO.OooooO",
"OooooooOO...OOOOOooOOo ooOOO...O",
".OOOOOOO..O......XX.o     oooOOO",
"....OOO..OoooO..XXXO          oo"
};
