/* XPM */
static char *c2hhZG93X3RvcA__[] = {
/* columns rows colors chars-per-pixel */
"32 32 5 1 ",
"  c #56587B",
". c #9BF0FD",
"X c white",
"o c #62ABD4",
"O c #5880CC",
/* pixels */
"O  Ooo..oO  O  OOooO   OOOOO   O",
" OOO Oo.ooO OOOOOooOOOOOOOOOOO  ",
"OOOOOOOOOooOOOOoooooOOOOOOOOOOOO",
"OOOOOOOOo..ooooooOoooOOOOOOOOOOO",
"OOOOOOoo..oOOO   OOOooOOOOOOOOOO",
"OOOooooOO            Oo..oOOOOOO",
"oo..oO                 Oo...oOOo",
"oOOOooO   OO OO  OO  O  o.....oo",
"O  OOoooOOOOOO    OOOOOo..oOO   ",
"      OooooOOOOOOOOOOOoooOO     ",
"       OoOoooOOOOOOOoooO        ",
"OOOOO  Oo  OoooOOOOoooO  OOO  OO",
" OOOOOOooO   Oo...ooOOOOOOOOOOO ",
"OOOOOOOoO  OOoXXXooOOOOOOOOOOOOO",
"OOOOOO.........OOO...OOOOOOOOOOO",
"oooooo....oo       o..oooooooooo",
"OOOOO..OO            O..OOOOOOOO",
"OOO..O   OOO          O.XX.....O",
"..X.XX.ooooOOoooOOOOoooXX.ooo...",
"oooo....ooooooooooooooo..oOOOOOo",
"OOOOOoo...oooooooooooo..oOOOOOOO",
"OOOOOOOOo..oooooooooo..oOOOOOOOO",
"oOOOoooOOoo.ooooooo..ooOoooOOOoo",
"OOOooooooooo..ooo...ooooooOOoooo",
"ooooooooooooo.XX...ooooooooooooo",
"ooooooooooooo.X.oo..oooooooooooo",
"ooooooooo......oOOo.X.oooooooooo",
"........XX.ooOOOOOOo.X..ooooooo.",
"..oOOoo...oOOOoooOo..oo..X.oooo.",
"oOOOOOOoo...ooooooo..oOoo...XXX.",
".ooooooo..o......XXXoOOOOOooo...",
"....ooo..oOOOo..XXX.OOOOOOOOOOoo"
};
