/* XPM */
static char *c2hhZG93X2JvdHRvbQ__[] = {
/* columns rows colors chars-per-pixel */
"32 32 5 1 ",
"  c #56587B",
". c #9BF0FD",
"X c white",
"o c #5880CC",
"O c #62ABD4",
/* pixels */
"OooO..XX.OooOooOO..OoooOOOOOoooO",
"oOOOoO.X..OoOOOOO..OOOOOOOOOOOoo",
"OOOOOOOOO..OOOO.....OOOOOOOOOOOO",
"OOOOOOOO.XX......O...OOOOOOOOOOO",
"OOOOOO..XX.OOOoooOOO..OOOOOOOOOO",
"OOO....OOooooooooooooO.XX.OOOOOO",
"..XX.OoooooooooooooooooO.XXX.OO.",
".OOO..OoooOOoOOooOOooOoo.XXXXX..",
"OooOO...OOOOOOooooOOOOO.XX.OOooo",
"ooooooO....OOOOOOOOOOO...OOooooo",
"oooooooO.O...OOOOOOO...Ooooooooo",
"OOOOOooO.ooO...OOOO...OooOOOooOO",
"oOOOOOO..OoooO.XXX..OOOOOOOOOOOo",
"OOOOOOO.OooOO.XXX..OOOOOOOOOOOOO",
"OOOOOO.........OOO...OOOOOOOOOOO",
"OOOOOO....OOoooooooO..OOOOOOOOOO",
"OOOOO..OO            O..OOOOOOOO",
"ooo..o   ooo          o.XX.....o",
"OO.O..Ooooo  ooo    ooo..OoooOOO",
"ooooOOOOoooooooooooooooOOo     o",
"     ooOOOooooooooooooOOo       ",
"        oOOooooooooooOOo        ",
"o   ooo  ooOoooooooOOoo ooo   oo",
"   oooooooooOOoooOOOoooooo  oooo",
"oooooooooooooO..OOOooooooooooooo",
"oooooooooooooO.OooOOoooooooooooo",
"oooooooooOOOOOOo  oO.Ooooooooooo",
"OOOOOOOO..Ooo      oO.OOoooooooO",
"OOo  ooOOOo   ooo oOOooOO.OooooO",
"o      ooOOOoooooooOOo ooOOO...O",
"OoooooooOOoOOOOOO...o     oooOOO",
"OOOOoooOOo   oOO...O          oo"
};
