/* XPM */
static char *d2F0ZXJfYm90dG9tX3JpZ2h0[] = {
/* columns rows colors chars-per-pixel */
"32 32 5 1 ",
"  c #9BF0FD",
". c #56587B",
"X c white",
"o c #62ABD4",
"O c #5880CC",
/* pixels */
"O..Ooo  oO..O..OOooO...OOOOO...O",
".OOO.Oo ooO.OOOOOooOOOOOOOOOOO..",
"OOOOOOOOOooOOOOoooooOOOOOOOOOOOO",
"OOOOOOOOo  ooooooOoooOOOOOOOOOOO",
"OOOOOOoo  oOOO...OOOooOOOOOOOOOO",
"OOOooooOO............Oo  oOOOOOO",
"oo  oO.................Oo   oOOo",
"oOOOooO...OO.OO..OO..O..o     oo",
"O..OOoooOOOOOO....OOOOOo  oOO...",
"......OooooOOOOOOOOOOOoooOO.....",
".......OoOoooOOOOOOOoooO........",
"OOOOO..Oo..OoooOOOOoooO..OOO..OO",
".OOOOOOooO...Oo   ooOOOOOOOOOOO.",
"OOOOOOOoO..OOoXXXooOOOOOOOOOOOOO",
"OOOOOOoooooooo OOO   OOOOOOOOOOO",
"OOOOOOooooOO.......o  oooooooooo",
"OOOOOooOO.......OOOOOo  oooooooo",
"OOOooO...OOO....OOOOOOo XX     o",
"oo o  oOOOO..OOoOOOOoooXX ooo   ",
"OOOOooooOOOOOOOoooooooo  oOOOOOo",
".....OOoooOOOOOooooooo  oOOOOOOO",
"........OooOOOOoooooo  oOOOOOOOO",
"O...OOO..OOoOOOoooo  ooOoooOOOoo",
"...OOOOOOOOOooOoo   ooooooOOoooo",
"OOOOOOOOOOOOOoXX   ooooooooooooo",
"OOOOOOOOOOOOOoX oo  oooooooooooo",
"OOOOOOOOOooooo oOOo X oooooooooo",
"oooooooo  oOO...OOOo X  ooooooo ",
"ooO..OOoooO...OooOo  oo  X oooo ",
"O......OOoooOOOoooo  oOoo   XXX ",
"oOOOOOOOooOooo   XXXoOOOOOooo   ",
"ooooOOOooO...O  XXX OOOOOOOOOOoo"
};
