/* XPM */
static char *d2F0ZXJfdG9wX2xlZnQ_[] = {
/* columns rows colors chars-per-pixel */
"32 32 5 1 ",
"  c #56587B",
". c #5880CC",
"X c #62ABD4",
"o c #9BF0FD",
"O c white",
/* pixels */
"X..XooOOoX..X..XXoX.   .....   .",
".XXX.XoOooX.XXXXXoX...........  ",
"XXXXXXXXXooXXXXoooXX............",
"XXXXXXXXoOOoooooo.XXX...........",
"XXXXXXooOOoXXX.. ...XX..........",
"XXXooooXX.......     .XooX......",
"ooOOoX..........       .XoooX..X",
"oXXXooX...XX.XX. ..  .  XoooooXX",
"X..XXoooXXXXXX..  .....XooX..   ",
"......XooooXXXXXX.....XXX..     ",
".......XoXoooXXXX...XXX.        ",
"XXXXX..Xo..XoooXX..XXX.  ...  ..",
".XXXXXXooX...XoOOOXX........... ",
"XXXXXXXoX..XXoOOOoX.............",
"XXXXXXoooooooooXX.XXX...........",
"XXXXXXooooXX....   .XX..........",
"XXXXXooXX            .XX........",
"...oo.   ...          .XooXXXXX.",
"XXOXOOX....  ...    ...ooX...XXX",
"....XXXX...............XX.     .",
"     ..XXX............XX.       ",
"        .XX..........XX.        ",
".   ...  ..X.......XX.. ...   ..",
"   .........XX...XXX......  ....",
".............XooXXX.............",
".............XoX..XX............",
".........XXXXXX.  .XoX..........",
"XXXXXXXXooX..      .XoXX.......X",
"XX.  ..XXX.   ... .XX..XXoX....X",
".      ..XXX.......XX. ..XXXoooX",
"X.......XX.XXXXXXooo.     ...XXX",
"XXXX...XX.   .XXoooX          .."
};
