/* XPM */
static char *d2F0ZXJfYm90dG9tLWxlZnQ_[] = {
/* columns rows colors chars-per-pixel */
"32 32 5 1 ",
"  c #56587B",
". c #5880CC",
"X c #62ABD4",
"o c #9BF0FD",
"O c white",
/* pixels */
".  .XXooX.  .  ..XX.   .....   .",
" ... .XoXX. .....XX...........  ",
".........XX....XXXXX............",
"........XooXXXXXX.XXX...........",
"......XXooX...   ...XX..........",
"X..XXXX..            .XooX......",
"ooOoX.                 .XoooX..X",
"o...XX.   .. ..  ..  .  XoooooXX",
".  ..XXX......    .....XooX..   ",
"      .XXXX...........XXX..     ",
"       .X.XXX.......XXX.        ",
".....  .X  .XXX....XXX.  ...  ..",
" ......XX.   .XoooXX........... ",
".......X.  ..XOOOXX.............",
"......ooooooooo...XXX...........",
"XXXXXXooooXX       .XX..........",
".....oo..            .XX........",
"...ooX   ...          .XooXXXXX.",
"ooOoOOoXXXX..XXX    ...ooX...XXX",
"XXXXooooXXXXXXXXX......XX.     .",
".....XXoooXXXXXXX.....XX.       ",
"........XooXXXXXX....XX.        ",
"X...XXX..XXoXXXXX..XX.. ...   ..",
"...XXXXXXXXXooXXXoXX......  ....",
"XXXXXXXXXXXXXoOOooX.............",
"XXXXXXXXXXXXXoOoX.XX............",
"XXXXXXXXXooooooX  .XoX..........",
"ooooooooOOoXX...   .XoXX.......X",
"ooX..XXoooX...XXX .XX..XXoX....X",
"X......XXoooXXXXX..XX. ..XXXOOOX",
"oXXXXXXXooXooooooOOO.     ...ooo",
"ooooXXXooX...XooOOOo          XX"
};
