/* XPM */
static char *bGlnaHRfcmlnaHQ_[] = {
/* columns rows colors chars-per-pixel */
"32 32 6 1 ",
"  c #E6DECA",
". c #25131A",
"X c #9A8571",
"o c #523B40",
"O c #606060",
"+ c #A7ACBA",
/* pixels */
"++++++++++++++++++++++++++++++ .",
"++++++++++++++++++++++++++++++ .",
"++++++++++++++++++++++++++++++ .",
"++++++++++++++++++++++++++++++ .",
"++++++++++++++++++++++++++++++ .",
"++++++++++++++++++++++++++++++ .",
"++++++++++++++++++++++++++++++ .",
"++++++++++++++++++++++++++++++ .",
"++++++++++++++++++++++++++++++ .",
"++++++++++++++++++++++++++++++ .",
"++++++++++++++++++++++++++++++ .",
"++++++++++++++++++++++++++++++ .",
"++++++++++++++++++++++++++++++ .",
"++++++++++++++++++++++++++++++ .",
"++++++++++++++++++++++++++++++ .",
"XXXXXXXXXXXXXXXXXXXXXXXXXXXXXX+.",
"XXXXXXXXXXXXXXXXXXXXXXXXXXXXXX+.",
"OOOOOOOOOOOOOOOOOOOOOOOOOOOOOOX.",
"OOOOOOOOOOOOOOOOOOOOOOOOOOOOOOX.",
"OOOOoOOOOOOOOOOOOOOOOOOOOOOOOOX.",
"OOOOOOOOooOOOOOOOOoOOOOOOOOOOOX.",
"OooOOOOOooOOOOOOOOOOOOOOOoOOOOX.",
"OooOOOOOOOOOOOOooOOOOOOOOOOOOoO.",
"OOOOOooOOOOOOOOooOOOOOooOOOOOoO.",
"OOoooooOOOooOOOOOOOOOOooOoooOOX.",
"OOoooOOOOOooOOOOoooOOOOOOoooooX.",
"OOoooOOOoooOOOOOoooOooooOoooooX.",
"oOOOOOOOoooooooOoooOooooOOOOooX.",
"OOOOOOOOooooOooOOOOOooooOOOOooX.",
"ooOooooOooooOOOOOOooooooOOooooX.",
"ooooooooooooooooooooooooooooooO.",
"ooooooooooooooooooooooooooooooO."
};
