/* XPM */
static char *bGlnaHRfbGVmdF9yaWdodA__[] = {
/* columns rows colors chars-per-pixel */
"32 32 6 1 ",
"  c #25131A",
". c #523B40",
"X c #606060",
"o c #9A8571",
"O c #A7ACBA",
"+ c #E6DECA",
/* pixels */
" oOOOOOOOOOOOOOOOOOOOOOOOOOOOO+ ",
" oOOOOOOOOOOOOOOOOOOOOOOOOOOOO+ ",
" oOOOOOOOOOOOOOOOOOOOOOOOOOOOO+ ",
" oOOOOOOOOOOOOOOOOOOOOOOOOOOOO+ ",
" oOOOOOOOOOOOOOOOOOOOOOOOOOOOO+ ",
" oOOOOOOOOOOOOOOOOOOOOOOOOOOOO+ ",
" oOOOOOOOOOOOOOOOOOOOOOOOOOOOO+ ",
" oOOOOOOOOOOOOOOOOOOOOOOOOOOOO+ ",
" oOOOOOOOOOOOOOOOOOOOOOOOOOOOO+ ",
" oOOOOOOOOOOOOOOOOOOOOOOOOOOOO+ ",
" oOOOOOOOOOOOOOOOOOOOOOOOOOOOO+ ",
" oOOOOOOOOOOOOOOOOOOOOOOOOOOOO+ ",
" oOOOOOOOOOOOOOOOOOOOOOOOOOOOO+ ",
" oOOOOOOOOOOOOOOOOOOOOOOOOOOOO+ ",
" oOOOOOOOOOOOOOOOOOOOOOOOOOOOO+ ",
" oooooooooooooooooooooooooooooO ",
" oooooooooooooooooooooooooooooO ",
" .XXXXXXXXXXXXXXXXXXXXXXXXXXXXo ",
" .XXXXXXXXXXXXXXXXXXXXXXXXXXXXo ",
" .XX.XXXXXXXXXXXXXXXXXXXXXXXXXo ",
" .XXXXXX..XXXXXXXX.XXXXXXXXXXXo ",
" ..XXXXX..XXXXXXXXXXXXXXX.XXXXo ",
" ..XXXXXXXXXXXX..XXXXXXXXXXXX.X ",
" .XXX..XXXXXXXX..XXXXX..XXXXX.X ",
" ......XXX..XXXXXXXXXX..X...XXo ",
" ....XXXXX..XXXX...XXXXXX.....o ",
" ....XXX...XXXXX...X....X.....o ",
" .XXXXXX.......X...X....XXXX..o ",
" .XXXXXX....X..XXXXX....XXXX..o ",
" .X....X....XXXXXX......XX....o ",
" .............................X ",
" .............................X "
};
