/* XPM */
static char *bGlnaHRfdG9w[] = {
/* columns rows colors chars-per-pixel */
"32 32 6 1 ",
"  c #25131A",
". c #523B40",
"X c #606060",
"o c #9A8571",
"O c #A7ACBA",
"+ c #E6DECA",
/* pixels */
"                                ",
"++++++++++++++++++++++++++++++++",
"OOOOOOOOOOOOOOOOOOOOOOOOOOOOOOOO",
"OOOOOOOOOOOOOOOOOOOOOOOOOOOOOOOO",
"OOOOOOOOOOOOOOOOOOOOOOOOOOOOOOOO",
"OOOOOOOOOOOOOOOOOOOOOOOOOOOOOOOO",
"OOOOOOOOOOOOOOOOOOOOOOOOOOOOOOOO",
"OOOOOOOOOOOOOOOOOOOOOOOOOOOOOOOO",
"OOOOOOOOOOOOOOOOOOOOOOOOOOOOOOOO",
"OOOOOOOOOOOOOOOOOOOOOOOOOOOOOOOO",
"OOOOOOOOOOOOOOOOOOOOOOOOOOOOOOOO",
"OOOOOOOOOOOOOOOOOOOOOOOOOOOOOOOO",
"OOOOOOOOOOOOOOOOOOOOOOOOOOOOOOOO",
"OOOOOOOOOOOOOOOOOOOOOOOOOOOOOOOO",
"OOOOOOOOOOOOOOOOOOOOOOOOOOOOOOOO",
"oooooooooooooooooooooooooooooooo",
"oooooooooooooooooooooooooooooooo",
"XXXXXXXXXXXXXXXXXXXXXXXXXXXXXXXX",
"XXXXXXXXXXXXXXXXXXXXXXXXXXXXXXXX",
"XXXX.XXXXXXXXXXXXXXXXXXXXXXXXXXX",
"XXXXXXXX..XXXXXXXX.XXXXXXXXXXXX.",
"X..XXXXX..XXXXXXXXXXXXXXX.XXXXXX",
"X..XXXXXXXXXXXX..XXXXXXXXXXXX..X",
"XXXXX..XXXXXXXX..XXXXX..XXXXX..X",
"XX.....XXX..XXXXXXXXXX..X...XXXX",
"XX...XXXXX..XXXX...XXXXXX.......",
"XX...XXX...XXXXX...X....X.......",
".XXXXXXX.......X...X....XXXX....",
"XXXXXXXX....X..XXXXX....XXXX....",
"..X....X....XXXXXX......XX....XX",
"................................",
"................................"
};
