/* XPM */
static char *bGlnaHRfbGVmdA__[] = {
/* columns rows colors chars-per-pixel */
"32 32 5 1 ",
"  c #25131A",
". c #9A8571",
"X c #523B40",
"o c #606060",
"O c #A7ACBA",
/* pixels */
" .OOOOOOOOOOOOOOOOOOOOOOOOOOOOOO",
" .OOOOOOOOOOOOOOOOOOOOOOOOOOOOOO",
" .OOOOOOOOOOOOOOOOOOOOOOOOOOOOOO",
" .OOOOOOOOOOOOOOOOOOOOOOOOOOOOOO",
" .OOOOOOOOOOOOOOOOOOOOOOOOOOOOOO",
" .OOOOOOOOOOOOOOOOOOOOOOOOOOOOOO",
" .OOOOOOOOOOOOOOOOOOOOOOOOOOOOOO",
" .OOOOOOOOOOOOOOOOOOOOOOOOOOOOOO",
" .OOOOOOOOOOOOOOOOOOOOOOOOOOOOOO",
" .OOOOOOOOOOOOOOOOOOOOOOOOOOOOOO",
" .OOOOOOOOOOOOOOOOOOOOOOOOOOOOOO",
" .OOOOOOOOOOOOOOOOOOOOOOOOOOOOOO",
" .OOOOOOOOOOOOOOOOOOOOOOOOOOOOOO",
" .OOOOOOOOOOOOOOOOOOOOOOOOOOOOOO",
" .OOOOOOOOOOOOOOOOOOOOOOOOOOOOOO",
" ...............................",
" ...............................",
" Xoooooooooooooooooooooooooooooo",
" Xoooooooooooooooooooooooooooooo",
" XooXooooooooooooooooooooooooooo",
" XooooooXXooooooooXooooooooooooX",
" XXoooooXXoooooooooooooooXoooooo",
" XXooooooooooooXXooooooooooooXXo",
" XoooXXooooooooXXoooooXXoooooXXo",
" XXXXXXoooXXooooooooooXXoXXXoooo",
" XXXXoooooXXooooXXXooooooXXXXXXX",
" XXXXoooXXXoooooXXXoXXXXoXXXXXXX",
" XooooooXXXXXXXoXXXoXXXXooooXXXX",
" XooooooXXXXoXXoooooXXXXooooXXXX",
" XoXXXXoXXXXooooooXXXXXXooXXXXoo",
" XXXXXXXXXXXXXXXXXXXXXXXXXXXXXXX",
" XXXXXXXXXXXXXXXXXXXXXXXXXXXXXXX"
};
