/* XPM */
static char *bGlnaHRfdG9wX3JpZ2h0[] = {
/* columns rows colors chars-per-pixel */
"32 32 7 1 ",
"  c #25131A",
". c #523B40",
"X c #606060",
"o c #9A8571",
"O c #A7ACBA",
"+ c #E6DECA",
"@ c None",
/* pixels */
"                               @",
"+++++++++++++++++++++++++++++++ ",
"OOOOOOOOOOOOOOOOOOOOOOOOOOOOOO+ ",
"OOOOOOOOOOOOOOOOOOOOOOOOOOOOOO+ ",
"OOOOOOOOOOOOOOOOOOOOOOOOOOOOOO+ ",
"OOOOOOOOOOOOOOOOOOOOOOOOOOOOOO+ ",
"OOOOOOOOOOOOOOOOOOOOOOOOOOOOOO+ ",
"OOOOOOOOOOOOOOOOOOOOOOOOOOOOOO+ ",
"OOOOOOOOOOOOOOOOOOOOOOOOOOOOOO+ ",
"OOOOOOOOOOOOOOOOOOOOOOOOOOOOOO+ ",
"OOOOOOOOOOOOOOOOOOOOOOOOOOOOOO+ ",
"OOOOOOOOOOOOOOOOOOOOOOOOOOOOOO+ ",
"OOOOOOOOOOOOOOOOOOOOOOOOOOOOOO+ ",
"OOOOOOOOOOOOOOOOOOOOOOOOOOOOOO+ ",
"OOOOOOOOOOOOOOOOOOOOOOOOOOOOOO+ ",
"ooooooooooooooooooooooooooooooO ",
"ooooooooooooooooooooooooooooooO ",
"XXXXXXXXXXXXXXXXXXXXXXXXXXXXXXo ",
"XXXXXXXXXXXXXXXXXXXXXXXXXXXXXXo ",
"XXXX.XXXXXXXXXXXXXXXXXXXXXXXXXo ",
"XXXXXXXX..XXXXXXXX.XXXXXXXXXXXo ",
"X..XXXXX..XXXXXXXXXXXXXXX.XXXXo ",
"X..XXXXXXXXXXXX..XXXXXXXXXXXX.X ",
"XXXXX..XXXXXXXX..XXXXX..XXXXX.X ",
"XX.....XXX..XXXXXXXXXX..X...XXo ",
"XX...XXXXX..XXXX...XXXXXX.....o ",
"XX...XXX...XXXXX...X....X.....o ",
".XXXXXXX.......X...X....XXXX..o ",
"XXXXXXXX....X..XXXXX....XXXX..o ",
"..X....X....XXXXXX......XX....o ",
"..............................X ",
"..............................X "
};
