/* XPM */
static char *d2FsbA__[] = {
/* columns rows colors chars-per-pixel */
"32 32 4 1 ",
"  c #523B40",
". c #606060",
"X c #9A8571",
"o c #A7ACBA",
/* pixels */
"oooooooooooooooooooooooooooooooo",
"oooooooooooooooooooooooooooooooo",
"oooooooooooooooooooooooooooooooo",
"oooooooooooooooooooooooooooooooo",
"oooooooooooooooooooooooooooooooo",
"oooooooooooooooooooooooooooooooo",
"oooooooooooooooooooooooooooooooo",
"oooooooooooooooooooooooooooooooo",
"oooooooooooooooooooooooooooooooo",
"oooooooooooooooooooooooooooooooo",
"oooooooooooooooooooooooooooooooo",
"oooooooooooooooooooooooooooooooo",
"oooooooooooooooooooooooooooooooo",
"oooooooooooooooooooooooooooooooo",
"oooooooooooooooooooooooooooooooo",
"XXXXXXXXXXXXXXXXXXXXXXXXXXXXXXXX",
"XXXXXXXXXXXXXXXXXXXXXXXXXXXXXXXX",
"................................",
"................................",
".... ...........................",
"........  ........ ............ ",
".  .....  ............... ......",
".  ............  ............  .",
".....  ........  .....  .....  .",
"..     ...  ..........  .   ....",
"..   .....  ....   ......       ",
"..   ...   .....   .    .       ",
" .......       .   .    ....    ",
"........    .  .....    ....    ",
"  .    .    ......      ..    ..",
"                                ",
"                                "
};
