/* XPM */
static char *dummy[]={
"28 28 5 1",
". c None",
"c c #523b40",
"b c #802954",
"# c #d01946",
"a c #e84444",
"............................",
"............................",
"............................",
"............................",
"................##aa........",
"...............###aa........",
"..............####aa........",
"..............####aa........",
"............######aaa.......",
"...........#######aaaa......",
"...........bbbb###aaaa......",
"#aaaa......bbbbbbb#####.....",
"#aaaaa.....bbbbbb######.....",
"##aaaaa....bbbbbb######.....",
"###aaaaa...bbbbbb#####......",
".##b#####..bbbbbc#####......",
".##b######.bbbbccb####......",
".##b#######bbbbccb####......",
"...bbb####bbbccc######......",
"...bbbb###bbbccc######......",
"....bbbb##bbbccbb####.......",
"....bbbb##bcbccbb####.###aa#",
"......bbbbbcbccbb###bb######",
"......bbbbbbbccbb###b######.",
"...........bbbbbb##.bbbbbb..",
"............................",
"............................",
"............................"};
