/* XPM */
static char *dummy[]={
"28 28 4 1",
". c None",
"b c #606060",
"a c #9a8571",
"# c #a7acba",
"...........##...............",
"..........######............",
".........a######............",
"........aa#######...........",
".......abba#######..........",
".......bbbb#######..........",
"......bbbbbaa#####..........",
"......bbbbbaaaa#aa..........",
"......bbbbbbaa####..........",
".....bbbbbbba#####b.........",
".....bbbbbbba####aa#........",
".....bbbbbbbaa##ba#####.....",
"....bbbbbbbbaaaaaa######....",
"....bbbbbbbbaaaaaa######....",
"....bbbbbbbaaaaaaa#######...",
"....bbbbbbbaaaaaaa#######...",
"....bbbbbbbaaaaaaa#######...",
"....bbbbbbbaaaaaaaa######...",
"....bbbbbbbaaaaabaaaaaaaa...",
"....bbbbbbbbaaaabaaaaaa###..",
"...bbbbbbbbbaaaabaaaaa####..",
"...bbbbbbbbbbaabbbaaa####b..",
"...bbbbbbbbbbbbbbbaaaaaaa...",
"...bbbbbbbbbbbaabbaaaaaab...",
"...bbbbbbbbbbbaaabbbbbb.....",
"...bbbbbbbbbbbb.............",
"....bbbbbbbbb...............",
"....bbbbbbb................."};
