/* XPM */
static char *dummy[]={
"26 26 2 1",
". c None",
"# c #3d253b",
"..........................",
"..........................",
"..........................",
"..........................",
"..........................",
"..........................",
"..........######..........",
".....################.....",
"....##################....",
"..######################..",
"..######################..",
".########################.",
".########################.",
"##########################",
"##########################",
"##########################",
"##########################",
".########################.",
".########################.",
".########################.",
"..######################..",
"....##################....",
".....################.....",
".......#############......",
"..........................",
".........................."};
