/* XPM */
static char *dummy[]={
"28 28 5 1",
". c None",
"a c #523b40",
"c c #895a45",
"# c #bf704d",
"b c #e6deca",
"............................",
"............................",
"............................",
".........#..................",
"........a#a.................",
"........aaa.................",
"........###b##..............",
".........cbbb#..............",
".......bbbbbbb..##..........",
"......#bbbbbbb..##..........",
"......##bbbbbb..##..........",
"........bbbbbb..##..........",
"........bbbbbb..##bb........",
"........bbbbb...##bb........",
"....####bbbbb...##bbb.......",
".###aaaabbbb######bbbbbb....",
".##aaaaabbbaaaa####bbbbbb...",
"#aaaaaaba#aaaaaa#####..#####",
"#aaaaaaaaaaaaaaaaa###cccc...",
"##aaaaaaaaaaaaaaaa##ccc.....",
"c##aaaaaaaaaaaa####ccc......",
"ccc#############cccc........",
"cccc#########ccccccc........",
".cccccccccccccccccc.........",
".ccccccccccccccccc..........",
".....ccccccc................",
"............................",
"............................"};
