/* XPM */
static char *result[] = {
/* columns rows colors chars-per-pixel */
"32 32 5 1 ",
"  c #523B40",
". c #895A45",
"X c #BF704D",
"o c #E6DECA",
"O c None",
/* pixels */
"OOOOOOOOOOOOOOOOOOOOOOOOOOOOOOOO",
"OOOOOOOOOOOOOOOOOOOOOOOOOOOOOOOO",
"OOOOOOOOOOOOOOOOOOOOOOOOOOOOOOOO",
"OOOOOOOOOOXOOOOOOOOOOOOOOOOOOOOO",
"OOOOOOOOOXXXOOOOOOOOOOOOOOOOOOOO",
"OOOOOOOOO X XOOOOOOOOOOOOOOOOOOO",
"OOOOOOOOO   XOOOOOOOOOOOOOOOOOOO",
"OOOOOOOOOXXXooXXOOOOOOOOOOOOOOOO",
"OOOOOOOOOO.ooooXOOOOOOOOOOOOOOOO",
"OOOOOOOOooooooooOOXXOOOOOOOOOOOO",
"OOOOOOOXooooooooOOXXOOOOOOOOOOOO",
"OOOOOOOXXoooooooOOXXoOOOOOOOOOOO",
"OOOOOOOOOoooooooOOXXoOOOOOOOOOOO",
"OOOOOOOOOoooooooOOXXoOOOOOOOOOOO",
"OOOOOOOOOoooooooOOXXoooOOOOOOOOO",
"OOOOOOOOOooooooOOOXXoooOOOOOOOOO",
"OOOOXXXXXooooooOOOXXooooOOOOOOOO",
"OXXXX    oooooXXXXXXoooooooOOOOO",
"OXX      ooo     XXXXXoooooooOOO",
"X       o X       XX XXXOOXXXXXX",
"X         X       XX  XXXXXXXX..",
"X                    XXX....OOOO",
"XX                  XXX...OOOOOO",
".XX              XXXXX...OOOOOOO",
"...XXXXXXXXXXXXXXX.....OOOOOOOOO",
"....XXXXXXXXXXX........OOOOOOOOO",
"O.....................OOOOOOOOOO",
"O....................OOOOOOOOOOO",
"OO..................OOOOOOOOOOOO",
"OOOOOO........OOOOOOOOOOOOOOOOOO",
"OOOOOOOOOOOOOOOOOOOOOOOOOOOOOOOO",
"OOOOOOOOOOOOOOOOOOOOOOOOOOOOOOOO"
};
