/* XPM */
static char *dummy[]={
"28 28 5 1",
". c None",
"a c #523b40",
"c c #895a45",
"# c #bf704d",
"b c #e6deca",
"..............#.............",
"..............#.............",
"............#a#a#...........",
"............#aaa#...........",
"...........#..#.............",
"...........####.............",
"...........b###.............",
"...........bbb####..........",
"...........bbb#bb#..........",
"...........bbb#bbb..........",
"...........bbb#bbb..........",
"...........bbb#bbb..........",
"..........cbbb#bbbc.........",
".........ccbbb#bbbcc........",
"........##cabb#bbbcc#.......",
"........##aaaa#bbba##.......",
"........##aaaa#aaaa##.......",
"........##aaaabaaaa##.......",
"........##aaabbbaaa##.......",
"........c##aabbbaa##c.......",
"........c##aabbbaa##c.......",
"........cc#aabbbaa##c.......",
".........c##abbaaa#c........",
".........c##aabaa##c........",
"..........cc##b###cc........",
"...........cccbccc..........",
"............cc#cc...........",
"..............#............."};
