/* XPM */
static char *result[] = {
/* columns rows colors chars-per-pixel */
"32 32 5 1 ",
"  c #523B40",
". c #895A45",
"X c #BF704D",
"o c #E6DECA",
"O c None",
/* pixels */
"OOOOOOOOOOOOOOOXXOOOOOOOOOOOOOOO",
"OOOOOOOOOOOOOOOXXOOOOOOOOOOOOOOO",
"OOOOOOOOOOOOOOXXXXOOOOOOOOOOOOOO",
"OOOOOOOOOOOOOX XX XOOOOOOOOOOOOO",
"OOOOOOOOOOOOOXXXXXXOOOOOOOOOOOOO",
"OOOOOOOOOOOOOOXXXXOOOOOOOOOOOOOO",
"OOOOOOOOOOOXXOOXXOOOOOOOOOOOOOOO",
"OOOOOOOOOOOXXXXXXOOOOOOOOOOOOOOO",
"OOOOOOOOOOOOoXXXXOOOOOOOOOOOOOOO",
"OOOOOOOOOOOOoooXXXXXOOOOOOOOOOOO",
"OOOOOOOOOOOOoooXXXXXXOOOOOOOOOOO",
"OOOOOOOOOOOOoooXXooXXOOOOOOOOOOO",
"OOOOOOOOOOO.oooXXooooOOOOOOOOOOO",
"OOOOOOOOOO..oooXXoooo.OOOOOOOOOO",
"OOOOOOOOO...oooXXoooo..OOOOOOOOO",
"OOOOOOOOO...oooXXoooo..OOOOOOOOO",
"OOOOOOOOXX. oooXXoooo.XXOOOOOOOO",
"OOOOOOOOXX. oooXXoooo.XXOOOOOOOO",
"OOOOOOOXXX  oooXXoooo XXXOOOOOOO",
"OOOOOOOXXX   ooXXoooo XXXOOOOOOO",
"OOOOOOOXXX     XX  oo XXXOOOOOOO",
"OOOOOOOXXX     XX     XXXOOOOOOO",
"OOOOOOOXXX            XXXOOOOOOO",
"OOOOOOOXXX            XXXOOOOOOO",
"OOOOOOOXXXX          XXXXOOOOOOO",
"OOOOOOO.XXXXX      XXXXX.OOOOOOO",
"OOOOOOO...XXXXXXXXXXXX...OOOOOOO",
"OOOOOOO.....XXXXXXXX.....OOOOOOO",
"OOOOOOOO................OOOOOOOO",
"OOOOOOOOO..............OOOOOOOOO",
"OOOOOOOOOO............OOOOOOOOOO",
"OOOOOOOOOOOO.........OOOOOOOOOOO"
};
