/* XPM */
static char *dummy[]={
"28 28 5 1",
". c None",
"a c #523b40",
"c c #895a45",
"# c #bf704d",
"b c #e6deca",
".............##.............",
".............##.............",
"............####............",
"...........#a##a#...........",
"............####............",
"..........#..##.............",
"..........#####.............",
"...........####.............",
"...........bb#####..........",
"...........bb#####..........",
"...........bb##bb#..........",
".........ccbb##bbbc.........",
"........cccbb##bbbcc........",
"........cccbb##bbbcc........",
".......##cabb##bbbc##.......",
".......##cabb##bbbc##.......",
"......###aabb##bbba###......",
"......###aabb##bbba###......",
"......###aaaa##aaaa###......",
"......###aaaaaaaaaa###......",
"......###aaaaaaaaaa###......",
"......####aaaaaaaa####......",
"......c####aaaaaa####c......",
"......ccc##########ccc......",
"......ccccc#######cccc......",
"........cccccccccccc........",
".........cccccccccc.........",
"...........ccccccc.........."};
