/* XPM */
static char *result[] = {
/* columns rows colors chars-per-pixel */
"32 32 5 1 ",
"  c #523B40",
". c #895A45",
"X c #BF704D",
"o c #E6DECA",
"O c None",
/* pixels */
"OOOOOOOOOOOOOOOOXOOOOOOOOOOOOOOO",
"OOOOOOOOOOOOOOOOXOOOOOOOOOOOOOOO",
"OOOOOOOOOOOOOOX X XOOOOOOOOOOOOO",
"OOOOOOOOOOOOOOX   XOOOOOOOOOOOOO",
"OOOOOOOOOOOOOOXXXXXOOOOOOOOOOOOO",
"OOOOOOOOOOOOXXOOXOOOOOOOOOOOOOOO",
"OOOOOOOOOOOOXXXXXOOOOOOOOOOOOOOO",
"OOOOOOOOOOOOOoXXXOOOOOOOOOOOOOOO",
"OOOOOOOOOOOOOoooXXXXXOOOOOOOOOOO",
"OOOOOOOOOOOOOoooXooXXOOOOOOOOOOO",
"OOOOOOOOOOOOOoooXoooOOOOOOOOOOOO",
"OOOOOOOOOOOOOoooXoooOOOOOOOOOOOO",
"OOOOOOOOOOOOOoooXoooOOOOOOOOOOOO",
"OOOOOOOOOOOOOoooXoooOOOOOOOOOOOO",
"OOOOOOOOOOO..oooXooo..OOOOOOOOOO",
"OOOOOOOOOO...oooXooo...OOOOOOOOO",
"OOOOOOOOOXX.  ooXooo ..XOOOOOOOO",
"OOOOOOOOOXX     Xooo  XXOOOOOOOO",
"OOOOOOOOOXX     X     XXOOOOOOOO",
"OOOOOOOOOXX     o     XXOOOOOOOO",
"OOOOOOOOOXX    oo     XXOOOOOOOO",
"OOOOOOOOOXX    ooo    XXOOOOOOOO",
"OOOOOOOOO.XX   ooo   XX.OOOOOOOO",
"OOOOOOOOO.XX   ooo   XX.OOOOOOOO",
"OOOOOOOOO..XX  ooo  XXX.OOOOOOOO",
"OOOOOOOOOO.XXX oo   XX.OOOOOOOOO",
"OOOOOOOOOO.XXX  o  XXX.OOOOOOOOO",
"OOOOOOOOOOO...XXoXXX...OOOOOOOOO",
"OOOOOOOOOOO....XoX....OOOOOOOOOO",
"OOOOOOOOOOOO....o....OOOOOOOOOOO",
"OOOOOOOOOOOOOO..X..OOOOOOOOOOOOO",
"OOOOOOOOOOOOOOOOXOOOOOOOOOOOOOOO"
};
