/* XPM */
static char *dummy[]={
"28 28 4 1",
". c None",
"b c #606060",
"# c #9a8571",
"a c #a7acba",
"............................",
"............................",
"............................",
"............................",
"............................",
"............................",
"............................",
"............................",
"............................",
"............................",
"............................",
"............................",
"............................",
"............................",
"..........###...............",
".......#aaa##aaa##..........",
"......##aaaaaaaaaaaa#.......",
"......##aaaaaaaaaaaa#.......",
"....b###aaa#aaaaaaaaaaa.....",
"..bbbb######aaaaaaaaaaaa....",
".bbbbb#######aaaaaaaaaaaa#..",
"bbbbbbbb########aaaaaaaa#aa.",
"bbbbbbbb########aaaaaaaa#aa.",
"bbbbbbbbbbb##############aa#",
".bbbbbbbbbbbb###............",
"............................",
"............................",
"............................"};
