/* XPM */
static char *dummy[]={
"32 32 7 1",
"# c #5880cc",
"e c #606060",
". c #62abd4",
"d c #9a8571",
"a c #9bf0fd",
"c c #a7acba",
"b c #ffffff",
".##.aabba.##.##..aa.###.....###.",
"#...#.abaa.#.....aa...........##",
".........aa.cc.aaaaa............",
"........abbcccccc.aaa...........",
"......aabbdcccccc...aa..........",
"...aaaa..ddccccccc###.abba......",
"aabba.##deedccccccc####.abbba..a",
"a...aa.#eeeeccccccc##.##abbbbbaa",
".##..aaeeeeeddccccc....abba..###",
"######.eeeeeddddcdd...aaa..#####",
"#######eeeeeeddcccc.aaa.########",
".....#eeeeeeedccccceaa.##...##..",
"#.....eeeeeeedccccddc..........#",
"......eeeeeeeddccedccccc........",
".....eeeeeeeeddddddcccccc.......",
".....eeeeeeeeddddddcccccc.......",
".....eeeeeeedddddddccccccc......",
"...aaeeeeeeedddddddcccccccaaaaa.",
"aababeeeeeeedddddddccccccc...aaa",
"....aeeeeeeeddddddddcccccc#####.",
"#####eeeeeeedddddedddddddd######",
"#####eeeeeeeeddddeddddddccc#####",
".###eeeeeeeeeddddedddddcccc###..",
"###.eeeeeeeeeeddeeedddcccce#....",
"....eeeeeeeeeeeeeeeddddddd......",
"....eeeeeeeeeeeddeedddddde......",
"....eeeeeeeeeeedddeeeeee........",
"aaaaeeeeeeeeeeee###.abaa.......a",
"aa.##eeeeeeeee...#.aa..aaba....a",
".####eeeeeee.......aa.#..aaabbba",
"a.......aa.aaaaaabbb.#####...aaa",
"aaaa...aa.###.aabbba##########.."};
