/* XPM */
static char *dummy[]={
"32 32 7 1",
"# c #56587b",
". c #5880cc",
"e c #606060",
"a c #62abd4",
"d c #9a8571",
"b c #9bf0fd",
"c c #a7acba",
".##.aabba.##.##..aa.###.....###.",
"#...#.abaa.#.....aa...........##",
".........aa..ccaaaaa............",
"........abbaccccccaaa...........",
"......aabbadcccccc..aa..........",
"...aaaa..#ddccccccc##.abba......",
"aabba.###deedccccccc###.abbba..a",
"a...aa.##eeeeccccccc#.##abbbbbaa",
".##..aaaeeeeeddccccc...abba..###",
"######.aeeeeeddddcdd..aaa..#####",
"#######.eeeeeeddccccaaa.########",
".....##eeeeeeedcccccea.##...##..",
"#......eeeeeeedccccddc.........#",
".......eeeeeeeddccedccccc.......",
"......eeeeeeeeddddddcccccc......",
"......eeeeeeeeddddddcccccc......",
".....aeeeeeeedddddddccccccc.....",
"...aa.eeeeeeedddddddcccccccaaaa.",
"aababbeeeeeeedddddddccccccc..aaa",
"....aaeeeeeeeddddddddcccccc####.",
"#####.eeeeeeedddddedddddddd#####",
"######eeeeeeeeddddeddddddccc####",
".###.eeeeeeeeeddddedddddcccc##..",
"###..eeeeeeeeeeddeeedddcccce....",
".....eeeeeeeeeeeeeeeddddddd.....",
".....eeeeeeeeeeeddeedddddde.....",
".....eeeeeeeeeeedddeeeeee.......",
"aaaaaeeeeeeeeeeee##.abaa.......a",
"aa.##.eeeeeeeee..#.aa..aaba....a",
".#####eeeeeee......aa.#..aaabbba",
"a.......aa.aaaaaabbb.#####...aaa",
"aaaa...aa.###.aabbba##########.."};
