/* XPM */
static char *cm9jazY_[] = {
/* columns rows colors chars-per-pixel */
"32 32 4 1 ",
"  c #606060",
". c #9A8571",
"X c #A7ACBA",
"o c None",
/* pixels */
"oooooooooooooooooooooooooooooooo",
"oooooooooooooooooooooooooooooooo",
"oooooooooooooooooooooooooooooooo",
"oooooooooooooooooooooooooooooooo",
"oooooooooooooooooooooooooooooooo",
"oooooooooooooooooooooooooooooooo",
"oooooooooooooooooooooooooooooooo",
"oooooooooooooooooooooooooooooooo",
"oooooooooooooooooooooooooooooooo",
"oooooooooooooooooooooooooooooooo",
"oooooooooooooooooooooooooooooooo",
"oooooooooooooooooooooooooooooooo",
"oooooooooooooooooooooooooooooooo",
"oooooooooooooooooooooooooooooooo",
"oooooooooooooooooooooooooooooooo",
"oooooooooooooooooooooooooooooooo",
"ooooooooooo....ooooooooooooooooo",
"oooooooo.XXXX..XXX..oooooooooooo",
"ooooooo..XXXXXXXXXXXXXX.oooooooo",
"ooooooo..XXXXXXXXXXXXXX.oooooooo",
"oooooo...XXXX.XXXXXXXXXXXooooooo",
"ooooo ...XXXX.XXXXXXXXXXXXoooooo",
"oo     .......XXXXXXXXXXXXXooooo",
"o      ........XXXXXXXXXXXXX..oo",
"         .........XXXXXXXXX.XXXo",
"         .........XXXXXXXXX.XXXo",
"            ................XXX.",
"o              ...oooooooooooooo",
"oooooooooooooooooooooooooooooooo",
"oooooooooooooooooooooooooooooooo",
"oooooooooooooooooooooooooooooooo",
"oooooooooooooooooooooooooooooooo"
};
