/* XPM */
static char *_84925d8dc4c4ae2fe51a94b8ff26210fOkYSzt6iBNwaPuV[] = {
/* columns rows colors chars-per-pixel */
"32 32 4 1 ",
"  c None",
". c #606060",
"X c #9A8571",
"o c #A7ACBA",
/* pixels */
"                                ",
"                                ",
"                                ",
"                                ",
"                                ",
"                                ",
"                                ",
"                                ",
"                                ",
"                                ",
"                                ",
"        oooooooooooooooX        ",
"      XXoooooooooooooooooooX    ",
"     XXXooooooooooooooooooooo   ",
"   XXXXXXoooooooooooooooooooooo ",
"   XXXXXXXXoooooooooooooooooooo ",
" XXXXXXXXXXXXXooooooooooooooooo ",
" XXXXXXXXXXXXXXXooooooooXooooXXX",
" .XXXXXXXXXXXXXXooooooooXXXXXXXX",
"...XXXXXXXX.XXXXXXooooooXXXXXXX ",
".....XXXXXXXXXXXXXXXooooX.XXXXX ",
"..........X...XXXXXXXXXXX.XXXX  ",
"..............XXXXXXXXXXX..XX   ",
"...............XXXXXXXXXX..     ",
" ...............XXXXXXXXX.      ",
" ................XXXXXXXX.      ",
"    ..............XXXXXX.       ",
"      .............XXX...       ",
"        ...........             ",
"                                ",
"                                ",
"                                "
};
