/* XPM */
static char *dummy[]={
"28 28 4 1",
". c None",
"b c #606060",
"a c #9a8571",
"# c #a7acba",
"............................",
"............................",
"............................",
"............................",
"............................",
"............................",
"............................",
"............................",
"............................",
"............................",
".......#############a.......",
"....aaa##################...",
"...aaaaa###################.",
"...aaaaaaa#################.",
".aaaaaaaaaaa###############.",
".aaaaaaaaaaaaa#######a###aaa",
".baaaaaaaaaaaa#######aaaaaaa",
"bbbaaaaaaabaaaaa#####aaaaaa.",
"bbbbbbbbbabbaaaaaaaaaabaaa..",
"bbbbbbbbbbbbaaaaaaaaaabba...",
"bbbbbbbbbbbbbaaaaaaaaabb....",
".bbbbbbbbbbbbbaaaaaaaab.....",
".bbbbbbbbbbbbbbaaaaaaab.....",
"....bbbbbbbbbbbbaaaaab......",
".....bbbbbbbbbbbbaabbb......",
"............................",
"............................",
"............................"};
