/* XPM */
static char *dummy[]={
"32 32 7 1",
"# c #56587b",
". c #5880cc",
"e c #606060",
"a c #62abd4",
"c c #9a8571",
"b c #9bf0fd",
"d c #a7acba",
".##.aabba.##.##..aa.###.....###.",
"#...#.abaa.#.....aa...........##",
".........aa....aaaaa............",
"........abbaaaaaa.aaa...........",
"......aabba...###...aa..........",
"...aaaa..############.abba......",
"aabba.#################.abbba..a",
"a...aa.###..#..##..##.##abbbbbaa",
".##..aaa......#cdddddddddddc.###",
"######.aaaa...cddddddddddddcc###",
"#######.a.aaecddddddddddddddcc##",
".....##.a##eccdddddddddddddddc..",
"#......aa.#eccddddddddddddddce.#",
".......a.##ecdddddddccccccceee..",
"......aeeeeeedddddddcccceeee....",
"......eecccccdddddccceeee.......",
".....aecccccccccccccccee........",
"...aaecccccddddddddddccebbaaaaa.",
"aabaecccddddddddddddddcdddce.aaa",
"...eecccddddddddddddddddddce###.",
"###eecccdddddddddddddcdddcce####",
"##eeeeccddddddddddccccccccee####",
".#eeeeccccccccccccccccccceee##..",
"##eeeecccccccccccccccceeeeee....",
"..eeeeeccccccccccccceeeeeee.....",
"...eeeeeeecccccceeeeeeeeeee.....",
".....eeeeeeeeeeeeeeeeee.........",
"aaaaaaaabba..######.abaa.......a",
"aa.##..aaa.###...#.aa..aaba....a",
".######..aaa.......aa.#..aaabbba",
"a.......aa.aaaaaabbb.#####...aaa",
"aaaa...aa.###.aabbba##########.."};
