/* XPM */
static char *cm9jazM_[] = {
/* columns rows colors chars-per-pixel */
"32 32 4 1 ",
"  c #606060",
". c #9A8571",
"X c #A7ACBA",
"o c None",
/* pixels */
"oooooooooooooooooooooooooooooooo",
"oooooooooooooooooooooooooooooooo",
"oooooooooooooooooooooooooooooooo",
"oooooooooooooooooooooooooooooooo",
"oooooooooooooooooooooooooooooooo",
"oooooooooooooooooooooooooooooooo",
"oooooooooooooooooooooooooooooooo",
"oooooooooooooooooooooooooooooooo",
"oooooooooooooooooooooooooooooooo",
"ooooooooooooooooooXXXXooooXXXXoo",
"oooooooooooXXXXXXXXXX..XXXXXXXXo",
"oooooooXXXXXXXXXXXX..XXXXXXXXXXX",
"oooooooXXXXXXXXXXX..XXXXXXXXXXXX",
"ooooo..XXXXXXXX...XXXXXXXXXXXX. ",
"ooooo.............XXXXXXXXXX.. o",
"ooooo.............XXXXXXXX...  o",
"oooo  ............XXXXXX...   oo",
"oo             ..........     oo",
"oo             .........     ooo",
"o              .......      oooo",
"o          .... ..          oooo",
"           ....           ..oooo",
"          .....         ....oooo",
"           ....         ....oooo",
"o          ...           ...oooo",
"o                          ooooo",
"oo                        oooooo",
"oo                       ooooooo",
"oooo                o   oooooooo",
"ooooooooo         oooooooooooooo",
"oooooooooooooooooooooooooooooooo",
"oooooooooooooooooooooooooooooooo"
};
