/* XPM */
static char *cm9jazQ_[] = {
/* columns rows colors chars-per-pixel */
"32 32 4 1 ",
"  c #606060",
". c #9A8571",
"X c #A7ACBA",
"o c None",
/* pixels */
"oooooooooooooooooooooooooooooooo",
"oooooooooooooooooooooooooooooooo",
"oooooooooooooooooooooooooooooooo",
"oooooooooooooooooooooooooooooooo",
"oooooooooooooooooooooooooooooooo",
"oooooooooooooooooooooooooooooooo",
"oooooooooooooooooooooooooooooooo",
"ooooooooooooooo.XXXXXXXXXXXX..oo",
"oooooooooooooo.XXXXXXXXXXXXXX..o",
"ooooooooooo ..XXXXXXXXXXXXXXXX..",
"oooooooooo ...XXXXXXXXXXXXXXXXX.",
"oooooooooo ...XXXXXXXXXXXXXXXX. ",
"oooooooooo .....XXXXXXXXXXXXXX  ",
"oooooooooo ..XXXXXXX.........   ",
"oooooo      XXXXXXXXX....     oo",
"ooooo  ......XXXXX....    oooooo",
"oooo  .................  ooooooo",
"ooo  .....XXXXXXXXXXXX.. ooooooo",
"oo ....XXXXXXXXXXXXXXXX.XXX.. oo",
"o  ....XXXXXXXXXXXXXXXXXXXX.. oo",
"o  ....XXXXXXXXXXXXXXX.XXXX.. oo",
"o  ....XXXXXXXXXXXXXXX.XXX... oo",
"    ...XXXXXXXXXXX.........   oo",
"    ......................    oo",
"     ..................       oo",
"      ...............        ooo",
"o        .......            oooo",
"ooo                     oooooooo",
"ooooooo            ooooooooooooo",
"oooooooooooooooooooooooooooooooo",
"oooooooooooooooooooooooooooooooo",
"oooooooooooooooooooooooooooooooo"
};
