/* XPM */
static char *dummy[]={
"28 28 4 1",
". c None",
"b c #606060",
"# c #9a8571",
"a c #a7acba",
"............................",
"............................",
"............................",
"............................",
"............................",
"............................",
".............#aaaaaaaaaaa#..",
"............#aaaaaaaaaaaa##.",
"..........b#aaaaaaaaaaaaaa##",
".........b##aaaaaaaaaaaaaaa#",
".........b##aaaaaaaaaaaaaa#b",
".........b#aaaaaaa#######bbb",
".....bbbbbbaaaaaaa####bbbb..",
"....bb#####aaaaa###bbbb.....",
"....b###############bb......",
"...b#####aaaaaaaaaa##b......",
"..b###aaaaaaaaaaaaaa#aaa#b..",
".bb###aaaaaaaaaaaaaaaaaa#b..",
".bb###aaaaaaaaaaaaa#aaa##b..",
"bbbb##aaaaaaaaaa########bb..",
"bbbb###################bbb..",
"bbbb################bbbbbb..",
"bbbbb#############bbbbbbb...",
".bbbbbbb######bbbbbbbbbbb...",
"...bbbbbbbbbbbbbbbbbb.......",
"............................",
"............................",
"............................"};
