/* XPM */
static char *dummy[]={
"32 32 7 1",
"# c #5880cc",
"e c #606060",
". c #62abd4",
"d c #9a8571",
"a c #9bf0fd",
"c c #a7acba",
"b c #ffffff",
".##.aabba.##.##..aa.###.....###.",
"#...#.abaa.#.....aa...........##",
".........aa....aaaaa............",
"........abbaaaaaa.aaa...........",
"......aabba...###...aa..........",
"...aaaa..############.abba......",
"aabba.#################.abbba..a",
"a...aa.###..#..##..##.##abbbbbaa",
".##..aaacccc..####.....abba..###",
"######.dccccccc.......aaa..#####",
"######ddcccccccc....aaa.########",
".....dddccccccccc..aaa.##...##..",
"#...edddccccccccccaa...........#",
"....eeddccccccccccc.............",
"....eeddccccccccccdda...........",
"...eeedddcccccccccccaa..........",
"...eeeddddccddcccccc#.aa........",
"...eeeeddddddccccccc##.abbaaaaa.",
"aaeeeeedcccddcccccccd..bba...aaa",
"..eeeeedccccdccccccdde.aa.#####.",
"##eeddddcccddcccccdddeddddd#####",
"###edddddddddddddddeeeddddddd###",
".##eddddeeeeddddddeeeeeddddddd..",
"###eeddeeeeeeddddeeeeeeddddddd..",
"...eeeeeeeeeeeeeeee..eeedddddd..",
"....eeeeeeeeeeeeeeaa..eeeddd....",
"....eeeeeeeeeeee##.aba..eee.....",
"aaaaaaaabba..######.abaa.......a",
"aa.##..aaa.###...#.aa..aaba....a",
".######..aaa.......aa.#..aaabbba",
"a.......aa.aaaaaabbb.#####...aaa",
"aaaa...aa.###.aabbba##########.."};
