/* XPM */
static char *dummy[]={
"28 28 4 1",
". c None",
"b c #606060",
"a c #9a8571",
"# c #a7acba",
"............................",
"............................",
"............................",
"............................",
"............................",
"............................",
"......#####.................",
".....a#######...............",
"....aa########..............",
"...baa#########.............",
"..bbaa##########............",
"..bbaa###########...........",
"..bbaa##########aa..........",
".bbbaaa###########..........",
".bbbaaaa###a######..........",
".bbbbaaaaaa#######..........",
"bbbbba###aa#######a.........",
"bbbbba####a######aab........",
".baaaa###aaa##aaaaabaaaaaa..",
".baaaaaaaaaaaaaaabbbaaaaaaa.",
".baaaabbbbbaaaaabbbbbaaaaaaa",
".bbaabbbbbbaaaabbbbbbaaaaaaa",
".bbbbbbbbbbbbbbbb..bbbaaaaaa",
"..bbbbbbbbbbbbbb....bbbaaa..",
"..bbbbbbbbbbbb........bbb...",
"............................",
"............................",
"............................"};
