/* XPM */
static char *_3a9c5f9a7eb4d50b9c1b9d6f724661bj2ng6RthkmtsX85J[] = {
/* columns rows colors chars-per-pixel */
"32 32 4 1 ",
"  c None",
". c #606060",
"X c #9A8571",
"o c #A7ACBA",
/* pixels */
"             oo                 ",
"           ooooooo              ",
"          Xooooooo              ",
"         XXoooooooo             ",
"         XXoooooooo             ",
"        X..Xoooooooo            ",
"        ....Xooooooo            ",
"       ......XXooooo            ",
"       ......XXXXoXXX           ",
"       .......XXooooX           ",
"      ........XoooooX.          ",
"      ........XooooX.Xo         ",
"      ........Xooo..oooooo      ",
"      ........XXoo.Xoooooo      ",
"     .........XXXXXXooooooo     ",
"     .........XXXXXXooooooo     ",
"     ........XXXXXXXoooooooo    ",
"    .........XXXXXXXoooooooo    ",
"    .........XXXXXXXXoooooooX   ",
"    .........XXXXXXXXXooooooX   ",
"    .........XXXXXXXXXXooooXX   ",
"    .........XXXXX.XXXXXXXXXo   ",
"    ..........XXXX.XXXXXXXoooo  ",
"   ...........XXXX.XXXXXXooooo  ",
"   ............XX...XXXXooooo.  ",
"   .................XXXXXXXXX   ",
"   .............XX..XXXXXXX..   ",
"   .............XXX.......      ",
"   ..............XX.....        ",
"   ..............               ",
"    ...........                 ",
"     .......                    "
};
