/* XPM */
static char *cm9jazU_[] = {
/* columns rows colors chars-per-pixel */
"32 32 4 1 ",
"  c #606060",
". c #9A8571",
"X c #A7ACBA",
"o c None",
/* pixels */
"oooooooooooooooooooooooooooooooo",
"oooooooooooooooooooooooooooooooo",
"oooooooooooooooooooooooooooooooo",
"oooooooooooooooooooooooooooooooo",
"oooooooooooooooooooooooooooooooo",
"oooooooooooooooooooooooooooooooo",
"oooooooooooooooooooooooooooooooo",
"oooooooXXXXXoooooooooooooooooooo",
"oooooo.XXXXXXXXooooooooooooooooo",
"ooooo..XXXXXXXXXoooooooooooooooo",
"ooo ...XXXXXXXXXXooooooooooooooo",
"oo  ...XXXXXXXXXXXoooooooooooooo",
"oo   ..XXXXXXXXXXXXooooooooooooo",
"oo   ..XXXXXXXXXXXXooooooooooooo",
"oo   ..XXXXXXXXXXX..oooooooooooo",
"o    ...XXXXXXXXXXXXXooooooooooo",
"o    ....XXX..XXXXXXXooooooooooo",
"o     .......XXXXXXXXooooooooooo",
"      .XXX...XXXXXXX .oooooooooo",
"      .XXXX..XXXXXX... ooooooooo",
"  .....XXX...XXXXX.... ......ooo",
"o .....XXX....XX.... . .......oo",
"o .................    ........o",
"o .....     ......      ........",
"o  ...       ....       ........",
"o                  ooo   .......",
"oo                ooooo   ....oo",
"oo              ooooooooo   oooo",
"oooooooooooooooooooooooooooooooo",
"oooooooooooooooooooooooooooooooo",
"oooooooooooooooooooooooooooooooo",
"oooooooooooooooooooooooooooooooo"
};
