/* XPM */
static char *dummy[]={
"32 32 7 1",
"# c #56587b",
". c #5880cc",
"e c #606060",
"a c #62abd4",
"d c #9a8571",
"b c #9bf0fd",
"c c #a7acba",
".##.aabba.##.##..aa.###.....###.",
"#...#.abaa.#.....aa...........##",
".........aa....aaaaa............",
"........abbaaaaaa.aaa...........",
"......aabba...###...aa..........",
"...aaaa..############.abba......",
"aabba.#################.abbba..a",
"a...aa.###..#..##..##.##abbbbbaa",
".##..aaa......####.....abba..###",
"######.aaaa...........aaa..#####",
"#######.acccccccccccccd.########",
".....#dddcccccccccccccccccc.##..",
"#....dddddccccccccccccccccccc..#",
".....dddddddccccccccccccccccc...",
"...dddddddddddccccccccccccccc...",
"...dddddddddddddcccccccdcccddd..",
"...eddddddddddddcccccccddddddd..",
"..eeedddddddedddddcccccddddddaa.",
"aaeeeeeeeeedeeddddddddddeddd.aaa",
"..eeeeeeeeeeeeddddddddddeed####.",
"##eeeeeeeeeeeeedddddddddee######",
"###eeeeeeeeeeeeedddddddde#######",
".##eeeeeeeeeeeeeeddddddde..###..",
"###...eeeeeeeeeeeeddddde..##....",
".......eeeeeeeeeeeeddeee........",
".............aba..aa............",
".........aaaaaa.##.aba..........",
"aaaaaaaabba..######.abaa.......a",
"aa.##..aaa.###...#.aa..aaba....a",
".######..aaa.......aa.#..aaabbba",
"a.......aa.aaaaaabbb.#####...aaa",
"aaaa...aa.###.aabbba##########.."};
