/* XPM */
static char *dummy[]={
"32 32 7 1",
"# c #56587b",
". c #5880cc",
"e c #606060",
"a c #62abd4",
"d c #9a8571",
"b c #9bf0fd",
"c c #a7acba",
".##.aabba.##.##..aa.###.....###.",
"#...#.abaa.#.....aa...........##",
".........aa....aaaaa............",
"........abbaaaaaa.aaa...........",
"......aabba...###...aa..........",
"...aaaa..############.abba......",
"aabba.#################.abbba..a",
"a...aa.###..#..##..##.##abbbbbaa",
".##..aaa......####ccc..abccc.###",
"######.aaaa.ccccccccddccccccc###",
"#######.cccccccccccdcccccccccc##",
".....#ddcccccccdddccccccccccde..",
"#.....ddddddddddddcccccccccde..#",
"......ddddddddddddcccccccddee...",
"......edddddddddddcccccdddee....",
"....eeeeeeeeeeedddddddddeeee....",
"....eeeeeeeeeeeddddddddeeee.....",
"...eeeeeeeeeeeeddddddeeeeeeaaaa.",
"aaeeeeeeeeeedddeeeeeeeeeedd..aaa",
"..eeeeeeeeeddddeeeeeeeedddd####.",
"##eeeeeeeeeedddeeeeeeeedddd#####",
"###eeeeeeeeeddeeeeeeeeeeddd#####",
".##eeeeeeeeeeeeeeeeeeeeeee.###..",
"###.eeeeeeeeeeeeeeeeeeeee.##....",
"....eeeeeeeeeeeeeeeeeeee........",
"..........eeeeeeeeaa............",
".........aaaaaa.##.aba..........",
"aaaaaaaabba..######.abaa.......a",
"aa.##..aaa.###...#.aa..aaba....a",
".######..aaa.......aa.#..aaabbba",
"a.......aa.aaaaaabbb.#####...aaa",
"aaaa...aa.###.aabbba##########.."};
