/* XPM */
static char *dummy[]={
"32 32 7 1",
"# c #5880cc",
"e c #606060",
". c #62abd4",
"d c #9a8571",
"a c #9bf0fd",
"c c #a7acba",
"b c #ffffff",
".##.aabba.##.##..aa.###.....###.",
"#...#.abaa.#.....aa...........##",
".........aa....aaaaa............",
"........abbaaaaaa.aaa...........",
"......aabba...###...aa..........",
"...aaaa..############.abba......",
"aabba.#################.abbba..a",
"a...aa.###..#..##..##.##abbbbbaa",
".##..aaa......####.....abba..###",
"######.aaaa...........aaa..#####",
"#######.a.aaa.......aaa.########",
".....##.a##.aaa....aaa.##...##..",
"#......aacccccccccccccd........#",
".......ddcccccccccccccccccd.....",
"......dddccccccccccccccccccc....",
"....ddddddcccccccccccccccccccc..",
"...dddddddddddcccccccccccccccc..",
"...dddddddddddddcccccccdccccdda.",
"aabdddddddddddddcccccccdddddddaa",
"..eeddddddddddddddcccccddddddd#.",
"##eeeeddddddddddddddcccdeddddd##",
"##eeeeeeeeedeeddddddddddedddd###",
".#eeeeeeeeeeeeddddddddddeedd##..",
"##eeeeeeeeeeeeedddddddddee##....",
"...eeeeeeeeeeeeedddddddde.......",
".....eeeeeeeeeeeeeddddde........",
".......eeeeeeeeeeeeddeee........",
"aaaaaaaabeeeeeeeeee.abaa.......a",
"aa.##..aaa.###...#.aa..aaba....a",
".######..aaa.......aa.#..aaabbba",
"a.......aa.aaaaaabbb.#####...aaa",
"aaaa...aa.###.aabbba##########.."};
