/* XPM */
static char *dummy[]={
"28 28 4 1",
". c None",
"b c #606060",
"a c #9a8571",
"# c #a7acba",
"............................",
"............................",
"............................",
"............................",
"............................",
"............................",
"............................",
"............................",
"................###....###..",
"..........########aa#######.",
"......###########a##########",
"....aa#######aaa##########ab",
"....aaaaaaaaaaaa#########ab.",
"....aaaaaaaaaaaa#######aabb.",
"....baaaaaaaaaaa#####aaabb..",
"..bbbbbbbbbbbaaaaaaaaabbbb..",
"..bbbbbbbbbbbaaaaaaaabbbb...",
".bbbbbbbbbbbbaaaaaabbbbbb...",
"bbbbbbbbbbaaabbbbbbbbbbaa...",
"bbbbbbbbbaaaabbbbbbbbaaaa...",
"bbbbbbbbbbaaabbbbbbbbaaaa...",
".bbbbbbbbbaabbbbbbbbbbaaa...",
".bbbbbbbbbbbbbbbbbbbbbbb....",
"..bbbbbbbbbbbbbbbbbbbbb.....",
"..bbbbbbbbbbbbbbbbbbbb......",
"........bbbbbbbb............",
"............................",
"............................"};
